<?xml version="1.0" encoding="utf-8"?>
<!-- Generator: Adobe Illustrator 27.5.0, SVG Export Plug-In . SVG Version: 6.00 Build 0)  -->
<svg version="1.1" id="Layer_1" xmlns="http://www.w3.org/2000/svg" xmlns:xlink="http://www.w3.org/1999/xlink" x="0px" y="0px"
	 viewBox="0 0 1788 129" style="enable-background:new 0 0 1788 129;" xml:space="preserve">
<style type="text/css">
	.st0{fill:#FFFFFF;}
	.st1{opacity:0.55;}
	.st2{opacity:0.55;fill:#FFFFFF;}
</style>
<g>
	<g>
		<path class="st0" d="M735.9,17h7.2c1.7,0,3,0.4,3.9,1.2c0.9,0.8,1.3,1.9,1.3,3.4c0,0.9-0.2,1.7-0.5,2.3c-0.3,0.6-0.8,1.1-1.5,1.5
			c0.7,0.1,1.3,0.3,1.8,0.6c0.5,0.3,0.9,0.6,1.2,1c0.3,0.4,0.5,0.8,0.7,1.3c0.1,0.5,0.2,1,0.2,1.5c0,0.8-0.2,1.6-0.5,2.2
			c-0.3,0.7-0.7,1.2-1.3,1.6c-0.5,0.4-1.2,0.8-2,1c-0.8,0.2-1.7,0.3-2.7,0.3h-7.7V17z M740.7,24h0.9c1.5,0,2.3-0.6,2.3-1.7
			c0-1.2-0.8-1.7-2.3-1.7h-0.9V24z M740.7,31.3h1.1c1.2,0,2.1-0.2,2.6-0.5c0.5-0.3,0.8-0.8,0.8-1.5c0-0.7-0.3-1.2-0.8-1.5
			c-0.5-0.3-1.4-0.5-2.6-0.5h-1.1V31.3z"/>
		<polygon class="st0" points="744.6,60.7 744.6,74.8 739.8,74.8 739.8,60.7 735.9,60.7 735.9,56.8 748.6,56.8 748.6,60.7 		"/>
		<path class="st0" d="M740.7,114.5h-4.8v-18h7.7c2.1,0,3.7,0.5,4.8,1.6c1.1,1.1,1.7,2.5,1.7,4.4c0,1.9-0.6,3.4-1.7,4.4
			c-1.1,1-2.7,1.6-4.8,1.6h-2.9V114.5z M740.7,104.8h1.6c1.8,0,2.7-0.7,2.7-2.2c0-1.5-0.9-2.2-2.7-2.2h-1.6V104.8z"/>
	</g>
	<g>
		<polygon class="st0" points="808.5,20.9 802.8,20.9 802.8,23.9 808.2,23.9 808.2,27.9 802.8,27.9 802.8,31 808.5,31 808.5,35 
			798,35 798,17 808.5,17 		"/>
		<polygon class="st0" points="799.8,63.7 806.7,63.7 806.7,56.8 811.5,56.8 811.5,74.8 806.7,74.8 806.7,67.3 799.8,67.3 
			799.8,74.8 794.9,74.8 794.9,56.8 799.8,56.8 		"/>
		<rect x="800.8" y="96.5" class="st0" width="4.8" height="18"/>
	</g>
	<g>
		<polygon class="st0" points="863.3,26.3 856.6,17 862.3,17 865.8,21.9 869.2,17 874.9,17 868.1,26.3 868.1,35 863.3,35 		"/>
		<polygon class="st0" points="871,60.7 865.3,60.7 865.3,63.7 870.7,63.7 870.7,67.7 865.3,67.7 865.3,70.8 871,70.8 871,74.8 
			860.5,74.8 860.5,56.8 871,56.8 		"/>
		<polygon class="st0" points="856.5,114.5 856.5,96.5 861.3,96.5 870.2,107.5 870.2,96.5 875,96.5 875,114.5 870.2,114.5 
			861.3,103.5 861.3,114.5 		"/>
	</g>
	<g class="st1">
		<path class="st0" d="M1123.9,31.8l-3.2-6.1c-0.1-0.1,0-0.3,0.2-0.3h1.6c0.2,0,0.3-0.2,0.2-0.3l-5.5-8.5c-0.1-0.1-0.3-0.1-0.4,0
			l-5.5,8.5c-0.1,0.1,0,0.3,0.2,0.3h1.6c0.2,0,0.3,0.2,0.2,0.3l-3.2,6.1c-0.1,0.1,0,0.3,0.2,0.3h4.4V35h4.4v-2.9h4.4
			C1123.8,32.1,1123.9,31.9,1123.9,31.8"/>
		<path class="st0" d="M1123.9,111.8l-3.2-6.1c-0.1-0.1,0-0.3,0.2-0.3h1.6c0.2,0,0.3-0.2,0.2-0.3l-5.5-8.5c-0.1-0.1-0.3-0.1-0.4,0
			l-5.5,8.5c-0.1,0.1,0,0.3,0.2,0.3h1.6c0.2,0,0.3,0.2,0.2,0.3l-3.2,6.1c-0.1,0.1,0,0.3,0.2,0.3h4.4v2.9h4.4v-2.9h4.4
			C1123.8,112.1,1123.9,112,1123.9,111.8"/>
		<path class="st0" d="M1123.9,71.8l-3.2-6.1c-0.1-0.1,0-0.3,0.2-0.3h1.6c0.2,0,0.3-0.2,0.2-0.3l-5.5-8.5c-0.1-0.1-0.3-0.1-0.4,0
			l-5.5,8.5c-0.1,0.1,0,0.3,0.2,0.3h1.6c0.2,0,0.3,0.2,0.2,0.3l-3.2,6.1c-0.1,0.1,0,0.3,0.2,0.3h4.4V75h4.4v-2.9h4.4
			C1123.8,72.1,1123.9,71.9,1123.9,71.8"/>
	</g>
	<g class="st1">
		<path class="st0" d="M1182.6,31.8l-3.2-6.1c-0.1-0.1,0-0.3,0.2-0.3h1.6c0.2,0,0.3-0.2,0.2-0.3l-5.5-8.5c-0.1-0.1-0.3-0.1-0.4,0
			l-5.5,8.5c-0.1,0.1,0,0.3,0.2,0.3h1.6c0.2,0,0.3,0.2,0.2,0.3l-3.2,6.1c-0.1,0.1,0,0.3,0.2,0.3h4.4V35h4.4v-2.9h4.4
			C1182.6,32.1,1182.7,31.9,1182.6,31.8"/>
		<path class="st0" d="M1182.6,111.8l-3.2-6.1c-0.1-0.1,0-0.3,0.2-0.3h1.6c0.2,0,0.3-0.2,0.2-0.3l-5.5-8.5c-0.1-0.1-0.3-0.1-0.4,0
			l-5.5,8.5c-0.1,0.1,0,0.3,0.2,0.3h1.6c0.2,0,0.3,0.2,0.2,0.3l-3.2,6.1c-0.1,0.1,0,0.3,0.2,0.3h4.4v2.9h4.4v-2.9h4.4
			C1182.6,112.1,1182.7,112,1182.6,111.8"/>
		<path class="st0" d="M1182.6,71.8l-3.2-6.1c-0.1-0.1,0-0.3,0.2-0.3h1.6c0.2,0,0.3-0.2,0.2-0.3l-5.5-8.5c-0.1-0.1-0.3-0.1-0.4,0
			l-5.5,8.5c-0.1,0.1,0,0.3,0.2,0.3h1.6c0.2,0,0.3,0.2,0.2,0.3l-3.2,6.1c-0.1,0.1,0,0.3,0.2,0.3h4.4V75h4.4v-2.9h4.4
			C1182.6,72.1,1182.7,71.9,1182.6,71.8"/>
	</g>
	<g class="st1">
		<path class="st0" d="M1241.3,31.8l-3.2-6.1c-0.1-0.1,0-0.3,0.2-0.3h1.6c0.2,0,0.3-0.2,0.2-0.3l-5.5-8.5c-0.1-0.1-0.3-0.1-0.4,0
			l-5.5,8.5c-0.1,0.1,0,0.3,0.2,0.3h1.6c0.2,0,0.3,0.2,0.2,0.3l-3.2,6.1c-0.1,0.1,0,0.3,0.2,0.3h4.4V35h4.4v-2.9h4.4
			C1241.3,32.1,1241.4,31.9,1241.3,31.8"/>
		<path class="st0" d="M1241.3,111.8l-3.2-6.1c-0.1-0.1,0-0.3,0.2-0.3h1.6c0.2,0,0.3-0.2,0.2-0.3l-5.5-8.5c-0.1-0.1-0.3-0.1-0.4,0
			l-5.5,8.5c-0.1,0.1,0,0.3,0.2,0.3h1.6c0.2,0,0.3,0.2,0.2,0.3l-3.2,6.1c-0.1,0.1,0,0.3,0.2,0.3h4.4v2.9h4.4v-2.9h4.4
			C1241.3,112.1,1241.4,112,1241.3,111.8"/>
		<path class="st0" d="M1241.3,71.8l-3.2-6.1c-0.1-0.1,0-0.3,0.2-0.3h1.6c0.2,0,0.3-0.2,0.2-0.3l-5.5-8.5c-0.1-0.1-0.3-0.1-0.4,0
			l-5.5,8.5c-0.1,0.1,0,0.3,0.2,0.3h1.6c0.2,0,0.3,0.2,0.2,0.3l-3.2,6.1c-0.1,0.1,0,0.3,0.2,0.3h4.4V75h4.4v-2.9h4.4
			C1241.3,72.1,1241.4,71.9,1241.3,71.8"/>
	</g>
	<g class="st1">
		<path class="st0" d="M1358.8,31.8l-3.2-6.1c-0.1-0.1,0-0.3,0.2-0.3h1.6c0.2,0,0.3-0.2,0.2-0.3l-5.5-8.5c-0.1-0.1-0.3-0.1-0.4,0
			l-5.5,8.5c-0.1,0.1,0,0.3,0.2,0.3h1.6c0.2,0,0.3,0.2,0.2,0.3l-3.2,6.1c-0.1,0.1,0,0.3,0.2,0.3h4.4V35h4.4v-2.9h4.4
			C1358.8,32.1,1358.9,31.9,1358.8,31.8"/>
		<path class="st0" d="M1358.8,111.8l-3.2-6.1c-0.1-0.1,0-0.3,0.2-0.3h1.6c0.2,0,0.3-0.2,0.2-0.3l-5.5-8.5c-0.1-0.1-0.3-0.1-0.4,0
			l-5.5,8.5c-0.1,0.1,0,0.3,0.2,0.3h1.6c0.2,0,0.3,0.2,0.2,0.3l-3.2,6.1c-0.1,0.1,0,0.3,0.2,0.3h4.4v2.9h4.4v-2.9h4.4
			C1358.8,112.1,1358.9,112,1358.8,111.8"/>
		<path class="st0" d="M1358.8,71.8l-3.2-6.1c-0.1-0.1,0-0.3,0.2-0.3h1.6c0.2,0,0.3-0.2,0.2-0.3l-5.5-8.5c-0.1-0.1-0.3-0.1-0.4,0
			l-5.5,8.5c-0.1,0.1,0,0.3,0.2,0.3h1.6c0.2,0,0.3,0.2,0.2,0.3l-3.2,6.1c-0.1,0.1,0,0.3,0.2,0.3h4.4V75h4.4v-2.9h4.4
			C1358.8,72.1,1358.9,71.9,1358.8,71.8"/>
	</g>
	<g class="st1">
		<path class="st0" d="M1300.1,31.8l-3.2-6.1c-0.1-0.1,0-0.3,0.2-0.3h1.6c0.2,0,0.3-0.2,0.2-0.3l-5.5-8.5c-0.1-0.1-0.3-0.1-0.4,0
			l-5.5,8.5c-0.1,0.1,0,0.3,0.2,0.3h1.6c0.2,0,0.3,0.2,0.2,0.3l-3.2,6.1c-0.1,0.1,0,0.3,0.2,0.3h4.4V35h4.4v-2.9h4.4
			C1300,32.1,1300.1,31.9,1300.1,31.8"/>
		<path class="st0" d="M1300.1,111.8l-3.2-6.1c-0.1-0.1,0-0.3,0.2-0.3h1.6c0.2,0,0.3-0.2,0.2-0.3l-5.5-8.5c-0.1-0.1-0.3-0.1-0.4,0
			l-5.5,8.5c-0.1,0.1,0,0.3,0.2,0.3h1.6c0.2,0,0.3,0.2,0.2,0.3l-3.2,6.1c-0.1,0.1,0,0.3,0.2,0.3h4.4v2.9h4.4v-2.9h4.4
			C1300,112.1,1300.1,112,1300.1,111.8"/>
		<path class="st0" d="M1300.1,71.8l-3.2-6.1c-0.1-0.1,0-0.3,0.2-0.3h1.6c0.2,0,0.3-0.2,0.2-0.3l-5.5-8.5c-0.1-0.1-0.3-0.1-0.4,0
			l-5.5,8.5c-0.1,0.1,0,0.3,0.2,0.3h1.6c0.2,0,0.3,0.2,0.2,0.3l-3.2,6.1c-0.1,0.1,0,0.3,0.2,0.3h4.4V75h4.4v-2.9h4.4
			C1300,72.1,1300.1,71.9,1300.1,71.8"/>
	</g>
	<g class="st1">
		<path class="st0" d="M1417.6,31.8l-3.2-6.1c-0.1-0.1,0-0.3,0.2-0.3h1.6c0.2,0,0.3-0.2,0.2-0.3l-5.5-8.5c-0.1-0.1-0.3-0.1-0.4,0
			l-5.5,8.5c-0.1,0.1,0,0.3,0.2,0.3h1.6c0.2,0,0.3,0.2,0.2,0.3l-3.2,6.1c-0.1,0.1,0,0.3,0.2,0.3h4.4V35h4.4v-2.9h4.4
			C1417.5,32.1,1417.6,31.9,1417.6,31.8"/>
		<path class="st0" d="M1417.6,111.8l-3.2-6.1c-0.1-0.1,0-0.3,0.2-0.3h1.6c0.2,0,0.3-0.2,0.2-0.3l-5.5-8.5c-0.1-0.1-0.3-0.1-0.4,0
			l-5.5,8.5c-0.1,0.1,0,0.3,0.2,0.3h1.6c0.2,0,0.3,0.2,0.2,0.3l-3.2,6.1c-0.1,0.1,0,0.3,0.2,0.3h4.4v2.9h4.4v-2.9h4.4
			C1417.5,112.1,1417.6,112,1417.6,111.8"/>
		<path class="st0" d="M1417.6,71.8l-3.2-6.1c-0.1-0.1,0-0.3,0.2-0.3h1.6c0.2,0,0.3-0.2,0.2-0.3l-5.5-8.5c-0.1-0.1-0.3-0.1-0.4,0
			l-5.5,8.5c-0.1,0.1,0,0.3,0.2,0.3h1.6c0.2,0,0.3,0.2,0.2,0.3l-3.2,6.1c-0.1,0.1,0,0.3,0.2,0.3h4.4V75h4.4v-2.9h4.4
			C1417.5,72.1,1417.6,71.9,1417.6,71.8"/>
	</g>
	<g class="st1">
		<path class="st0" d="M1476.3,31.8l-3.2-6.1c-0.1-0.1,0-0.3,0.2-0.3h1.6c0.2,0,0.3-0.2,0.2-0.3l-5.5-8.5c-0.1-0.1-0.3-0.1-0.4,0
			l-5.5,8.5c-0.1,0.1,0,0.3,0.2,0.3h1.6c0.2,0,0.3,0.2,0.2,0.3l-3.2,6.1c-0.1,0.1,0,0.3,0.2,0.3h4.4V35h4.4v-2.9h4.4
			C1476.3,32.1,1476.4,31.9,1476.3,31.8"/>
		<path class="st0" d="M1476.3,111.8l-3.2-6.1c-0.1-0.1,0-0.3,0.2-0.3h1.6c0.2,0,0.3-0.2,0.2-0.3l-5.5-8.5c-0.1-0.1-0.3-0.1-0.4,0
			l-5.5,8.5c-0.1,0.1,0,0.3,0.2,0.3h1.6c0.2,0,0.3,0.2,0.2,0.3l-3.2,6.1c-0.1,0.1,0,0.3,0.2,0.3h4.4v2.9h4.4v-2.9h4.4
			C1476.3,112.1,1476.4,112,1476.3,111.8"/>
		<path class="st0" d="M1476.3,71.8l-3.2-6.1c-0.1-0.1,0-0.3,0.2-0.3h1.6c0.2,0,0.3-0.2,0.2-0.3l-5.5-8.5c-0.1-0.1-0.3-0.1-0.4,0
			l-5.5,8.5c-0.1,0.1,0,0.3,0.2,0.3h1.6c0.2,0,0.3,0.2,0.2,0.3l-3.2,6.1c-0.1,0.1,0,0.3,0.2,0.3h4.4V75h4.4v-2.9h4.4
			C1476.3,72.1,1476.4,71.9,1476.3,71.8"/>
	</g>
	<g class="st1">
		<path class="st0" d="M1535,31.8l-3.2-6.1c-0.1-0.1,0-0.3,0.2-0.3h1.6c0.2,0,0.3-0.2,0.2-0.3l-5.5-8.5c-0.1-0.1-0.3-0.1-0.4,0
			l-5.5,8.5c-0.1,0.1,0,0.3,0.2,0.3h1.6c0.2,0,0.3,0.2,0.2,0.3l-3.2,6.1c-0.1,0.1,0,0.3,0.2,0.3h4.4V35h4.4v-2.9h4.4
			C1535,32.1,1535.1,31.9,1535,31.8"/>
		<path class="st0" d="M1535,111.8l-3.2-6.1c-0.1-0.1,0-0.3,0.2-0.3h1.6c0.2,0,0.3-0.2,0.2-0.3l-5.5-8.5c-0.1-0.1-0.3-0.1-0.4,0
			l-5.5,8.5c-0.1,0.1,0,0.3,0.2,0.3h1.6c0.2,0,0.3,0.2,0.2,0.3l-3.2,6.1c-0.1,0.1,0,0.3,0.2,0.3h4.4v2.9h4.4v-2.9h4.4
			C1535,112.1,1535.1,112,1535,111.8"/>
		<path class="st0" d="M1535,71.8l-3.2-6.1c-0.1-0.1,0-0.3,0.2-0.3h1.6c0.2,0,0.3-0.2,0.2-0.3l-5.5-8.5c-0.1-0.1-0.3-0.1-0.4,0
			l-5.5,8.5c-0.1,0.1,0,0.3,0.2,0.3h1.6c0.2,0,0.3,0.2,0.2,0.3l-3.2,6.1c-0.1,0.1,0,0.3,0.2,0.3h4.4V75h4.4v-2.9h4.4
			C1535,72.1,1535.1,71.9,1535,71.8"/>
	</g>
	<g class="st1">
		<path class="st0" d="M1593.8,31.8l-3.2-6.1c-0.1-0.1,0-0.3,0.2-0.3h1.6c0.2,0,0.3-0.2,0.2-0.3l-5.5-8.5c-0.1-0.1-0.3-0.1-0.4,0
			l-5.5,8.5c-0.1,0.1,0,0.3,0.2,0.3h1.6c0.2,0,0.3,0.2,0.2,0.3l-3.2,6.1c-0.1,0.1,0,0.3,0.2,0.3h4.4V35h4.4v-2.9h4.4
			C1593.7,32.1,1593.8,31.9,1593.8,31.8"/>
		<path class="st0" d="M1593.8,111.8l-3.2-6.1c-0.1-0.1,0-0.3,0.2-0.3h1.6c0.2,0,0.3-0.2,0.2-0.3l-5.5-8.5c-0.1-0.1-0.3-0.1-0.4,0
			l-5.5,8.5c-0.1,0.1,0,0.3,0.2,0.3h1.6c0.2,0,0.3,0.2,0.2,0.3l-3.2,6.1c-0.1,0.1,0,0.3,0.2,0.3h4.4v2.9h4.4v-2.9h4.4
			C1593.7,112.1,1593.8,112,1593.8,111.8"/>
		<path class="st0" d="M1593.8,71.8l-3.2-6.1c-0.1-0.1,0-0.3,0.2-0.3h1.6c0.2,0,0.3-0.2,0.2-0.3l-5.5-8.5c-0.1-0.1-0.3-0.1-0.4,0
			l-5.5,8.5c-0.1,0.1,0,0.3,0.2,0.3h1.6c0.2,0,0.3,0.2,0.2,0.3l-3.2,6.1c-0.1,0.1,0,0.3,0.2,0.3h4.4V75h4.4v-2.9h4.4
			C1593.7,72.1,1593.8,71.9,1593.8,71.8"/>
	</g>
	<g class="st1">
		<path class="st0" d="M1652.5,31.8l-3.2-6.1c-0.1-0.1,0-0.3,0.2-0.3h1.6c0.2,0,0.3-0.2,0.2-0.3l-5.5-8.5c-0.1-0.1-0.3-0.1-0.4,0
			l-5.5,8.5c-0.1,0.1,0,0.3,0.2,0.3h1.6c0.2,0,0.3,0.2,0.2,0.3l-3.2,6.1c-0.1,0.1,0,0.3,0.2,0.3h4.4V35h4.4v-2.9h4.4
			C1652.5,32.1,1652.6,31.9,1652.5,31.8"/>
		<path class="st0" d="M1652.5,111.8l-3.2-6.1c-0.1-0.1,0-0.3,0.2-0.3h1.6c0.2,0,0.3-0.2,0.2-0.3l-5.5-8.5c-0.1-0.1-0.3-0.1-0.4,0
			l-5.5,8.5c-0.1,0.1,0,0.3,0.2,0.3h1.6c0.2,0,0.3,0.2,0.2,0.3l-3.2,6.1c-0.1,0.1,0,0.3,0.2,0.3h4.4v2.9h4.4v-2.9h4.4
			C1652.5,112.1,1652.6,112,1652.5,111.8"/>
		<path class="st0" d="M1652.5,71.8l-3.2-6.1c-0.1-0.1,0-0.3,0.2-0.3h1.6c0.2,0,0.3-0.2,0.2-0.3l-5.5-8.5c-0.1-0.1-0.3-0.1-0.4,0
			l-5.5,8.5c-0.1,0.1,0,0.3,0.2,0.3h1.6c0.2,0,0.3,0.2,0.2,0.3l-3.2,6.1c-0.1,0.1,0,0.3,0.2,0.3h4.4V75h4.4v-2.9h4.4
			C1652.5,72.1,1652.6,71.9,1652.5,71.8"/>
	</g>
	<g class="st1">
		<path class="st0" d="M1711.2,31.8l-3.2-6.1c-0.1-0.1,0-0.3,0.2-0.3h1.6c0.2,0,0.3-0.2,0.2-0.3l-5.5-8.5c-0.1-0.1-0.3-0.1-0.4,0
			l-5.5,8.5c-0.1,0.1,0,0.3,0.2,0.3h1.6c0.2,0,0.3,0.2,0.2,0.3l-3.2,6.1c-0.1,0.1,0,0.3,0.2,0.3h4.4V35h4.4v-2.9h4.4
			C1711.2,32.1,1711.3,31.9,1711.2,31.8"/>
		<path class="st0" d="M1711.2,111.8l-3.2-6.1c-0.1-0.1,0-0.3,0.2-0.3h1.6c0.2,0,0.3-0.2,0.2-0.3l-5.5-8.5c-0.1-0.1-0.3-0.1-0.4,0
			l-5.5,8.5c-0.1,0.1,0,0.3,0.2,0.3h1.6c0.2,0,0.3,0.2,0.2,0.3l-3.2,6.1c-0.1,0.1,0,0.3,0.2,0.3h4.4v2.9h4.4v-2.9h4.4
			C1711.2,112.1,1711.3,112,1711.2,111.8"/>
		<path class="st0" d="M1711.2,71.8l-3.2-6.1c-0.1-0.1,0-0.3,0.2-0.3h1.6c0.2,0,0.3-0.2,0.2-0.3l-5.5-8.5c-0.1-0.1-0.3-0.1-0.4,0
			l-5.5,8.5c-0.1,0.1,0,0.3,0.2,0.3h1.6c0.2,0,0.3,0.2,0.2,0.3l-3.2,6.1c-0.1,0.1,0,0.3,0.2,0.3h4.4V75h4.4v-2.9h4.4
			C1711.2,72.1,1711.3,71.9,1711.2,71.8"/>
	</g>
	<g class="st1">
		<path class="st0" d="M1770,31.8l-3.2-6.1c-0.1-0.1,0-0.3,0.2-0.3h1.6c0.2,0,0.3-0.2,0.2-0.3l-5.5-8.5c-0.1-0.1-0.3-0.1-0.4,0
			l-5.5,8.5c-0.1,0.1,0,0.3,0.2,0.3h1.6c0.2,0,0.3,0.2,0.2,0.3l-3.2,6.1c-0.1,0.1,0,0.3,0.2,0.3h4.4V35h4.4v-2.9h4.4
			C1769.9,32.1,1770,31.9,1770,31.8"/>
		<path class="st0" d="M1770,111.8l-3.2-6.1c-0.1-0.1,0-0.3,0.2-0.3h1.6c0.2,0,0.3-0.2,0.2-0.3l-5.5-8.5c-0.1-0.1-0.3-0.1-0.4,0
			l-5.5,8.5c-0.1,0.1,0,0.3,0.2,0.3h1.6c0.2,0,0.3,0.2,0.2,0.3l-3.2,6.1c-0.1,0.1,0,0.3,0.2,0.3h4.4v2.9h4.4v-2.9h4.4
			C1769.9,112.1,1770,112,1770,111.8"/>
		<path class="st0" d="M1770,71.8l-3.2-6.1c-0.1-0.1,0-0.3,0.2-0.3h1.6c0.2,0,0.3-0.2,0.2-0.3l-5.5-8.5c-0.1-0.1-0.3-0.1-0.4,0
			l-5.5,8.5c-0.1,0.1,0,0.3,0.2,0.3h1.6c0.2,0,0.3,0.2,0.2,0.3l-3.2,6.1c-0.1,0.1,0,0.3,0.2,0.3h4.4V75h4.4v-2.9h4.4
			C1769.9,72.1,1770,71.9,1770,71.8"/>
	</g>
	<g>
		<path class="st0" d="M1048.9,17h7.1c1.3,0,2.4,0.2,3.6,0.7c1.1,0.5,2.1,1.1,2.9,2c0.8,0.8,1.5,1.8,2,2.9c0.5,1.1,0.7,2.2,0.7,3.4
			c0,1.2-0.2,2.3-0.7,3.4c-0.5,1.1-1.1,2-1.9,2.9c-0.8,0.8-1.8,1.5-2.9,2c-1.1,0.5-2.3,0.7-3.6,0.7h-7.1V17z M1053.7,31h1.1
			c0.8,0,1.6-0.1,2.2-0.4c0.7-0.3,1.2-0.6,1.7-1.1c0.5-0.4,0.8-1,1-1.6c0.2-0.6,0.4-1.3,0.4-2c0-0.7-0.1-1.4-0.4-2
			c-0.2-0.6-0.6-1.2-1-1.6c-0.5-0.4-1-0.8-1.7-1c-0.7-0.3-1.4-0.4-2.2-0.4h-1.1V31z"/>
		<path class="st2" d="M1063.9,111.8l-3.2-6.1c-0.1-0.1,0-0.3,0.2-0.3h1.6c0.2,0,0.3-0.2,0.2-0.3l-5.5-8.5c-0.1-0.1-0.3-0.1-0.4,0
			l-5.5,8.5c-0.1,0.1,0,0.3,0.2,0.3h1.6c0.2,0,0.3,0.2,0.2,0.3l-3.2,6.1c-0.1,0.1,0,0.3,0.2,0.3h4.4v2.9h4.4v-2.9h4.4
			C1063.9,112.1,1064,112,1063.9,111.8"/>
		<path class="st2" d="M1063.9,71.8l-3.2-6.1c-0.1-0.1,0-0.3,0.2-0.3h1.6c0.2,0,0.3-0.2,0.2-0.3l-5.5-8.5c-0.1-0.1-0.3-0.1-0.4,0
			l-5.5,8.5c-0.1,0.1,0,0.3,0.2,0.3h1.6c0.2,0,0.3,0.2,0.2,0.3l-3.2,6.1c-0.1,0.1,0,0.3,0.2,0.3h4.4V75h4.4v-2.9h4.4
			C1063.9,72.1,1064,71.9,1063.9,71.8"/>
	</g>
	<g>
		<polygon class="st0" points="985.4,35 985.4,17 990.3,17 999.2,28 999.2,17 1003.9,17 1003.9,35 999.2,35 990.3,24 990.3,35 		"/>
		<path class="st0" d="M998.9,101.1c-0.5-0.4-1-0.7-1.6-0.9c-0.5-0.2-1-0.3-1.5-0.3c-0.6,0-1.1,0.1-1.5,0.4
			c-0.4,0.3-0.6,0.7-0.6,1.1c0,0.3,0.1,0.6,0.3,0.8c0.2,0.2,0.5,0.4,0.8,0.5c0.3,0.2,0.7,0.3,1.1,0.4c0.4,0.1,0.8,0.2,1.2,0.4
			c1.6,0.5,2.7,1.2,3.5,2c0.7,0.9,1.1,2,1.1,3.3c0,0.9-0.2,1.8-0.5,2.5c-0.3,0.7-0.8,1.4-1.4,1.9c-0.6,0.5-1.4,0.9-2.3,1.2
			c-0.9,0.3-1.9,0.4-3,0.4c-2.3,0-4.5-0.7-6.5-2l2.1-3.8c0.7,0.6,1.4,1.1,2.1,1.4c0.7,0.3,1.4,0.5,2.1,0.5c0.8,0,1.4-0.2,1.8-0.5
			c0.4-0.3,0.6-0.7,0.6-1.2c0-0.3,0-0.5-0.1-0.7c-0.1-0.2-0.3-0.4-0.5-0.5c-0.2-0.2-0.5-0.3-0.9-0.5c-0.4-0.1-0.8-0.3-1.3-0.5
			c-0.6-0.2-1.2-0.4-1.8-0.6c-0.6-0.2-1.1-0.5-1.6-0.9c-0.5-0.4-0.8-0.9-1.1-1.4c-0.3-0.6-0.4-1.3-0.4-2.2s0.2-1.7,0.5-2.4
			c0.3-0.7,0.7-1.3,1.3-1.9c0.5-0.5,1.2-0.9,2-1.2c0.8-0.3,1.7-0.4,2.7-0.4c0.9,0,1.9,0.1,2.9,0.4c1,0.2,2,0.6,2.9,1.1L998.9,101.1z
			"/>
		<path class="st2" d="M1001.6,71.8l-3.2-6.1c-0.1-0.1,0-0.3,0.2-0.3h1.6c0.2,0,0.3-0.2,0.2-0.3l-5.5-8.5c-0.1-0.1-0.3-0.1-0.4,0
			l-5.5,8.5c-0.1,0.1,0,0.3,0.2,0.3h1.6c0.2,0,0.3,0.2,0.2,0.3l-3.2,6.1c-0.1,0.1,0,0.3,0.2,0.3h4.4V75h4.4v-2.9h4.4
			C1001.5,72.1,1001.6,71.9,1001.6,71.8"/>
	</g>
	<g>
		<path class="st0" d="M920,26c0-1.3,0.3-2.6,0.8-3.7c0.5-1.2,1.2-2.2,2.1-3c0.9-0.9,2-1.5,3.2-2c1.3-0.5,2.6-0.7,4.1-0.7
			c1.5,0,2.9,0.2,4.1,0.7c1.3,0.5,2.3,1.2,3.3,2c0.9,0.9,1.6,1.9,2.1,3c0.5,1.2,0.8,2.4,0.8,3.7c0,1.3-0.3,2.6-0.8,3.7
			c-0.5,1.2-1.2,2.2-2.1,3c-0.9,0.9-2,1.5-3.3,2c-1.3,0.5-2.6,0.7-4.1,0.7c-1.5,0-2.9-0.2-4.1-0.7c-1.3-0.5-2.3-1.2-3.2-2
			c-0.9-0.9-1.6-1.9-2.1-3C920.2,28.6,920,27.3,920,26 M925,26c0,0.7,0.1,1.4,0.4,2c0.3,0.6,0.7,1.1,1.1,1.6c0.5,0.4,1,0.8,1.7,1
			c0.6,0.2,1.3,0.4,2,0.4c0.7,0,1.4-0.1,2-0.4c0.6-0.2,1.2-0.6,1.7-1c0.5-0.4,0.9-1,1.1-1.6c0.3-0.6,0.4-1.3,0.4-2s-0.1-1.4-0.4-2
			c-0.3-0.6-0.7-1.1-1.1-1.6c-0.5-0.4-1-0.8-1.7-1c-0.6-0.2-1.3-0.4-2-0.4c-0.7,0-1.4,0.1-2,0.4c-0.6,0.2-1.2,0.6-1.7,1
			c-0.5,0.4-0.9,1-1.1,1.6C925.1,24.6,925,25.3,925,26"/>
		<polygon class="st0" points="935.5,100.5 929.8,100.5 929.8,103.5 935.2,103.5 935.2,107.5 929.8,107.5 929.8,110.6 935.5,110.6 
			935.5,114.5 924.9,114.5 924.9,96.5 935.5,96.5 		"/>
		<path class="st2" d="M937.1,71.8l-3.2-6.1c-0.1-0.1,0-0.3,0.2-0.3h1.6c0.2,0,0.3-0.2,0.2-0.3l-5.5-8.5c-0.1-0.1-0.3-0.1-0.4,0
			l-5.5,8.5c-0.1,0.1,0,0.3,0.2,0.3h1.6c0.2,0,0.3,0.2,0.2,0.3l-3.2,6.1c-0.1,0.1,0,0.3,0.2,0.3h4.4V75h4.4v-2.9h4.4
			C937,72.1,937.2,71.9,937.1,71.8"/>
	</g>
	<g class="st1">
		<path class="st0" d="M44.8,31.8l-3.2-6.1c-0.1-0.1,0-0.3,0.2-0.3h1.6c0.2,0,0.3-0.2,0.2-0.3l-5.5-8.5c-0.1-0.1-0.3-0.1-0.4,0
			l-5.5,8.5c-0.1,0.1,0,0.3,0.2,0.3H34c0.2,0,0.3,0.2,0.2,0.3L31,31.8c-0.1,0.1,0,0.3,0.2,0.3h4.4V35h4.4v-2.9h4.4
			C44.7,32.1,44.8,31.9,44.8,31.8"/>
		<path class="st0" d="M44.8,111.8l-3.2-6.1c-0.1-0.1,0-0.3,0.2-0.3h1.6c0.2,0,0.3-0.2,0.2-0.3l-5.5-8.5c-0.1-0.1-0.3-0.1-0.4,0
			l-5.5,8.5c-0.1,0.1,0,0.3,0.2,0.3H34c0.2,0,0.3,0.2,0.2,0.3l-3.2,6.1c-0.1,0.1,0,0.3,0.2,0.3h4.4v2.9h4.4v-2.9h4.4
			C44.7,112.1,44.8,112,44.8,111.8"/>
		<path class="st0" d="M44.8,71.8l-3.2-6.1c-0.1-0.1,0-0.3,0.2-0.3h1.6c0.2,0,0.3-0.2,0.2-0.3l-5.5-8.5c-0.1-0.1-0.3-0.1-0.4,0
			l-5.5,8.5c-0.1,0.1,0,0.3,0.2,0.3H34c0.2,0,0.3,0.2,0.2,0.3L31,71.8c-0.1,0.1,0,0.3,0.2,0.3h4.4V75h4.4v-2.9h4.4
			C44.7,72.1,44.8,71.9,44.8,71.8"/>
	</g>
	<g class="st1">
		<path class="st0" d="M103.5,31.8l-3.2-6.1c-0.1-0.1,0-0.3,0.2-0.3h1.6c0.2,0,0.3-0.2,0.2-0.3l-5.5-8.5c-0.1-0.1-0.3-0.1-0.4,0
			L91,25.1c-0.1,0.1,0,0.3,0.2,0.3h1.6c0.2,0,0.3,0.2,0.2,0.3l-3.2,6.1c-0.1,0.1,0,0.3,0.2,0.3h4.4V35h4.4v-2.9h4.4
			C103.5,32.1,103.6,31.9,103.5,31.8"/>
		<path class="st0" d="M103.5,111.8l-3.2-6.1c-0.1-0.1,0-0.3,0.2-0.3h1.6c0.2,0,0.3-0.2,0.2-0.3l-5.5-8.5c-0.1-0.1-0.3-0.1-0.4,0
			l-5.5,8.5c-0.1,0.1,0,0.3,0.2,0.3h1.6c0.2,0,0.3,0.2,0.2,0.3l-3.2,6.1c-0.1,0.1,0,0.3,0.2,0.3h4.4v2.9h4.4v-2.9h4.4
			C103.5,112.1,103.6,112,103.5,111.8"/>
		<path class="st0" d="M103.5,71.8l-3.2-6.1c-0.1-0.1,0-0.3,0.2-0.3h1.6c0.2,0,0.3-0.2,0.2-0.3l-5.5-8.5c-0.1-0.1-0.3-0.1-0.4,0
			L91,65.2c-0.1,0.1,0,0.3,0.2,0.3h1.6c0.2,0,0.3,0.2,0.2,0.3l-3.2,6.1c-0.1,0.1,0,0.3,0.2,0.3h4.4V75h4.4v-2.9h4.4
			C103.5,72.1,103.6,71.9,103.5,71.8"/>
	</g>
	<g class="st1">
		<path class="st0" d="M162.2,31.8l-3.2-6.1c-0.1-0.1,0-0.3,0.2-0.3h1.6c0.2,0,0.3-0.2,0.2-0.3l-5.5-8.5c-0.1-0.1-0.3-0.1-0.4,0
			l-5.5,8.5c-0.1,0.1,0,0.3,0.2,0.3h1.6c0.2,0,0.3,0.2,0.2,0.3l-3.2,6.1c-0.1,0.1,0,0.3,0.2,0.3h4.4V35h4.4v-2.9h4.4
			C162.2,32.1,162.3,31.9,162.2,31.8"/>
		<path class="st0" d="M162.2,111.8l-3.2-6.1c-0.1-0.1,0-0.3,0.2-0.3h1.6c0.2,0,0.3-0.2,0.2-0.3l-5.5-8.5c-0.1-0.1-0.3-0.1-0.4,0
			l-5.5,8.5c-0.1,0.1,0,0.3,0.2,0.3h1.6c0.2,0,0.3,0.2,0.2,0.3l-3.2,6.1c-0.1,0.1,0,0.3,0.2,0.3h4.4v2.9h4.4v-2.9h4.4
			C162.2,112.1,162.3,112,162.2,111.8"/>
		<path class="st0" d="M162.2,71.8l-3.2-6.1c-0.1-0.1,0-0.3,0.2-0.3h1.6c0.2,0,0.3-0.2,0.2-0.3l-5.5-8.5c-0.1-0.1-0.3-0.1-0.4,0
			l-5.5,8.5c-0.1,0.1,0,0.3,0.2,0.3h1.6c0.2,0,0.3,0.2,0.2,0.3l-3.2,6.1c-0.1,0.1,0,0.3,0.2,0.3h4.4V75h4.4v-2.9h4.4
			C162.2,72.1,162.3,71.9,162.2,71.8"/>
	</g>
	<g class="st1">
		<path class="st0" d="M279.7,31.8l-3.2-6.1c-0.1-0.1,0-0.3,0.2-0.3h1.6c0.2,0,0.3-0.2,0.2-0.3l-5.5-8.5c-0.1-0.1-0.3-0.1-0.4,0
			l-5.5,8.5c-0.1,0.1,0,0.3,0.2,0.3h1.6c0.2,0,0.3,0.2,0.2,0.3l-3.2,6.1c-0.1,0.1,0,0.3,0.2,0.3h4.4V35h4.4v-2.9h4.4
			C279.7,32.1,279.8,31.9,279.7,31.8"/>
		<path class="st0" d="M279.7,111.8l-3.2-6.1c-0.1-0.1,0-0.3,0.2-0.3h1.6c0.2,0,0.3-0.2,0.2-0.3l-5.5-8.5c-0.1-0.1-0.3-0.1-0.4,0
			l-5.5,8.5c-0.1,0.1,0,0.3,0.2,0.3h1.6c0.2,0,0.3,0.2,0.2,0.3l-3.2,6.1c-0.1,0.1,0,0.3,0.2,0.3h4.4v2.9h4.4v-2.9h4.4
			C279.7,112.1,279.8,112,279.7,111.8"/>
		<path class="st0" d="M279.7,71.8l-3.2-6.1c-0.1-0.1,0-0.3,0.2-0.3h1.6c0.2,0,0.3-0.2,0.2-0.3l-5.5-8.5c-0.1-0.1-0.3-0.1-0.4,0
			l-5.5,8.5c-0.1,0.1,0,0.3,0.2,0.3h1.6c0.2,0,0.3,0.2,0.2,0.3l-3.2,6.1c-0.1,0.1,0,0.3,0.2,0.3h4.4V75h4.4v-2.9h4.4
			C279.7,72.1,279.8,71.9,279.7,71.8"/>
	</g>
	<g class="st1">
		<path class="st0" d="M221,31.8l-3.2-6.1c-0.1-0.1,0-0.3,0.2-0.3h1.6c0.2,0,0.3-0.2,0.2-0.3l-5.5-8.5c-0.1-0.1-0.3-0.1-0.4,0
			l-5.5,8.5c-0.1,0.1,0,0.3,0.2,0.3h1.6c0.2,0,0.3,0.2,0.2,0.3l-3.2,6.1c-0.1,0.1,0,0.3,0.2,0.3h4.4V35h4.4v-2.9h4.4
			C220.9,32.1,221,31.9,221,31.8"/>
		<path class="st0" d="M221,111.8l-3.2-6.1c-0.1-0.1,0-0.3,0.2-0.3h1.6c0.2,0,0.3-0.2,0.2-0.3l-5.5-8.5c-0.1-0.1-0.3-0.1-0.4,0
			l-5.5,8.5c-0.1,0.1,0,0.3,0.2,0.3h1.6c0.2,0,0.3,0.2,0.2,0.3l-3.2,6.1c-0.1,0.1,0,0.3,0.2,0.3h4.4v2.9h4.4v-2.9h4.4
			C220.9,112.1,221,112,221,111.8"/>
		<path class="st0" d="M221,71.8l-3.2-6.1c-0.1-0.1,0-0.3,0.2-0.3h1.6c0.2,0,0.3-0.2,0.2-0.3l-5.5-8.5c-0.1-0.1-0.3-0.1-0.4,0
			l-5.5,8.5c-0.1,0.1,0,0.3,0.2,0.3h1.6c0.2,0,0.3,0.2,0.2,0.3l-3.2,6.1c-0.1,0.1,0,0.3,0.2,0.3h4.4V75h4.4v-2.9h4.4
			C220.9,72.1,221,71.9,221,71.8"/>
	</g>
	<g class="st1">
		<path class="st0" d="M338.4,31.8l-3.2-6.1c-0.1-0.1,0-0.3,0.2-0.3h1.6c0.2,0,0.3-0.2,0.2-0.3l-5.5-8.5c-0.1-0.1-0.3-0.1-0.4,0
			l-5.5,8.5c-0.1,0.1,0,0.3,0.2,0.3h1.6c0.2,0,0.3,0.2,0.2,0.3l-3.2,6.1c-0.1,0.1,0,0.3,0.2,0.3h4.4V35h4.4v-2.9h4.4
			C338.4,32.1,338.5,31.9,338.4,31.8"/>
		<path class="st0" d="M338.4,111.8l-3.2-6.1c-0.1-0.1,0-0.3,0.2-0.3h1.6c0.2,0,0.3-0.2,0.2-0.3l-5.5-8.5c-0.1-0.1-0.3-0.1-0.4,0
			l-5.5,8.5c-0.1,0.1,0,0.3,0.2,0.3h1.6c0.2,0,0.3,0.2,0.2,0.3l-3.2,6.1c-0.1,0.1,0,0.3,0.2,0.3h4.4v2.9h4.4v-2.9h4.4
			C338.4,112.1,338.5,112,338.4,111.8"/>
		<path class="st0" d="M338.4,71.8l-3.2-6.1c-0.1-0.1,0-0.3,0.2-0.3h1.6c0.2,0,0.3-0.2,0.2-0.3l-5.5-8.5c-0.1-0.1-0.3-0.1-0.4,0
			l-5.5,8.5c-0.1,0.1,0,0.3,0.2,0.3h1.6c0.2,0,0.3,0.2,0.2,0.3l-3.2,6.1c-0.1,0.1,0,0.3,0.2,0.3h4.4V75h4.4v-2.9h4.4
			C338.4,72.1,338.5,71.9,338.4,71.8"/>
	</g>
	<g class="st1">
		<path class="st0" d="M397.2,31.8l-3.2-6.1c-0.1-0.1,0-0.3,0.2-0.3h1.6c0.2,0,0.3-0.2,0.2-0.3l-5.5-8.5c-0.1-0.1-0.3-0.1-0.4,0
			l-5.5,8.5c-0.1,0.1,0,0.3,0.2,0.3h1.6c0.2,0,0.3,0.2,0.2,0.3l-3.2,6.1c-0.1,0.1,0,0.3,0.2,0.3h4.4V35h4.4v-2.9h4.4
			C397.1,32.1,397.3,31.9,397.2,31.8"/>
		<path class="st0" d="M397.2,111.8l-3.2-6.1c-0.1-0.1,0-0.3,0.2-0.3h1.6c0.2,0,0.3-0.2,0.2-0.3l-5.5-8.5c-0.1-0.1-0.3-0.1-0.4,0
			l-5.5,8.5c-0.1,0.1,0,0.3,0.2,0.3h1.6c0.2,0,0.3,0.2,0.2,0.3l-3.2,6.1c-0.1,0.1,0,0.3,0.2,0.3h4.4v2.9h4.4v-2.9h4.4
			C397.1,112.1,397.3,112,397.2,111.8"/>
		<path class="st0" d="M397.2,71.8l-3.2-6.1c-0.1-0.1,0-0.3,0.2-0.3h1.6c0.2,0,0.3-0.2,0.2-0.3l-5.5-8.5c-0.1-0.1-0.3-0.1-0.4,0
			l-5.5,8.5c-0.1,0.1,0,0.3,0.2,0.3h1.6c0.2,0,0.3,0.2,0.2,0.3l-3.2,6.1c-0.1,0.1,0,0.3,0.2,0.3h4.4V75h4.4v-2.9h4.4
			C397.1,72.1,397.3,71.9,397.2,71.8"/>
	</g>
	<g class="st1">
		<path class="st0" d="M455.9,31.8l-3.2-6.1c-0.1-0.1,0-0.3,0.2-0.3h1.6c0.2,0,0.3-0.2,0.2-0.3l-5.5-8.5c-0.1-0.1-0.3-0.1-0.4,0
			l-5.5,8.5c-0.1,0.1,0,0.3,0.2,0.3h1.6c0.2,0,0.3,0.2,0.2,0.3l-3.2,6.1c-0.1,0.1,0,0.3,0.2,0.3h4.4V35h4.4v-2.9h4.4
			C455.9,32.1,456,31.9,455.9,31.8"/>
		<path class="st0" d="M455.9,111.8l-3.2-6.1c-0.1-0.1,0-0.3,0.2-0.3h1.6c0.2,0,0.3-0.2,0.2-0.3l-5.5-8.5c-0.1-0.1-0.3-0.1-0.4,0
			l-5.5,8.5c-0.1,0.1,0,0.3,0.2,0.3h1.6c0.2,0,0.3,0.2,0.2,0.3l-3.2,6.1c-0.1,0.1,0,0.3,0.2,0.3h4.4v2.9h4.4v-2.9h4.4
			C455.9,112.1,456,112,455.9,111.8"/>
		<path class="st0" d="M455.9,71.8l-3.2-6.1c-0.1-0.1,0-0.3,0.2-0.3h1.6c0.2,0,0.3-0.2,0.2-0.3l-5.5-8.5c-0.1-0.1-0.3-0.1-0.4,0
			l-5.5,8.5c-0.1,0.1,0,0.3,0.2,0.3h1.6c0.2,0,0.3,0.2,0.2,0.3l-3.2,6.1c-0.1,0.1,0,0.3,0.2,0.3h4.4V75h4.4v-2.9h4.4
			C455.9,72.1,456,71.9,455.9,71.8"/>
	</g>
	<g class="st1">
		<path class="st0" d="M514.7,31.8l-3.2-6.1c-0.1-0.1,0-0.3,0.2-0.3h1.6c0.2,0,0.3-0.2,0.2-0.3l-5.5-8.5c-0.1-0.1-0.3-0.1-0.4,0
			l-5.5,8.5c-0.1,0.1,0,0.3,0.2,0.3h1.6c0.2,0,0.3,0.2,0.2,0.3l-3.2,6.1c-0.1,0.1,0,0.3,0.2,0.3h4.4V35h4.4v-2.9h4.4
			C514.6,32.1,514.7,31.9,514.7,31.8"/>
		<path class="st0" d="M514.7,111.8l-3.2-6.1c-0.1-0.1,0-0.3,0.2-0.3h1.6c0.2,0,0.3-0.2,0.2-0.3l-5.5-8.5c-0.1-0.1-0.3-0.1-0.4,0
			l-5.5,8.5c-0.1,0.1,0,0.3,0.2,0.3h1.6c0.2,0,0.3,0.2,0.2,0.3l-3.2,6.1c-0.1,0.1,0,0.3,0.2,0.3h4.4v2.9h4.4v-2.9h4.4
			C514.6,112.1,514.7,112,514.7,111.8"/>
		<path class="st0" d="M514.7,71.8l-3.2-6.1c-0.1-0.1,0-0.3,0.2-0.3h1.6c0.2,0,0.3-0.2,0.2-0.3l-5.5-8.5c-0.1-0.1-0.3-0.1-0.4,0
			l-5.5,8.5c-0.1,0.1,0,0.3,0.2,0.3h1.6c0.2,0,0.3,0.2,0.2,0.3l-3.2,6.1c-0.1,0.1,0,0.3,0.2,0.3h4.4V75h4.4v-2.9h4.4
			C514.6,72.1,514.7,71.9,514.7,71.8"/>
	</g>
	<g class="st1">
		<path class="st0" d="M573.4,31.8l-3.2-6.1c-0.1-0.1,0-0.3,0.2-0.3h1.6c0.2,0,0.3-0.2,0.2-0.3l-5.5-8.5c-0.1-0.1-0.3-0.1-0.4,0
			l-5.5,8.5c-0.1,0.1,0,0.3,0.2,0.3h1.6c0.2,0,0.3,0.2,0.2,0.3l-3.2,6.1c-0.1,0.1,0,0.3,0.2,0.3h4.4V35h4.4v-2.9h4.4
			C573.4,32.1,573.5,31.9,573.4,31.8"/>
		<path class="st0" d="M573.4,111.8l-3.2-6.1c-0.1-0.1,0-0.3,0.2-0.3h1.6c0.2,0,0.3-0.2,0.2-0.3l-5.5-8.5c-0.1-0.1-0.3-0.1-0.4,0
			l-5.5,8.5c-0.1,0.1,0,0.3,0.2,0.3h1.6c0.2,0,0.3,0.2,0.2,0.3l-3.2,6.1c-0.1,0.1,0,0.3,0.2,0.3h4.4v2.9h4.4v-2.9h4.4
			C573.4,112.1,573.5,112,573.4,111.8"/>
		<path class="st0" d="M573.4,71.8l-3.2-6.1c-0.1-0.1,0-0.3,0.2-0.3h1.6c0.2,0,0.3-0.2,0.2-0.3l-5.5-8.5c-0.1-0.1-0.3-0.1-0.4,0
			l-5.5,8.5c-0.1,0.1,0,0.3,0.2,0.3h1.6c0.2,0,0.3,0.2,0.2,0.3l-3.2,6.1c-0.1,0.1,0,0.3,0.2,0.3h4.4V75h4.4v-2.9h4.4
			C573.4,72.1,573.5,71.9,573.4,71.8"/>
	</g>
	<g class="st1">
		<path class="st0" d="M632.1,31.8l-3.2-6.1c-0.1-0.1,0-0.3,0.2-0.3h1.6c0.2,0,0.3-0.2,0.2-0.3l-5.5-8.5c-0.1-0.1-0.3-0.1-0.4,0
			l-5.5,8.5c-0.1,0.1,0,0.3,0.2,0.3h1.6c0.2,0,0.3,0.2,0.2,0.3l-3.2,6.1c-0.1,0.1,0,0.3,0.2,0.3h4.4V35h4.4v-2.9h4.4
			C632.1,32.1,632.2,31.9,632.1,31.8"/>
		<path class="st0" d="M632.1,111.8l-3.2-6.1c-0.1-0.1,0-0.3,0.2-0.3h1.6c0.2,0,0.3-0.2,0.2-0.3l-5.5-8.5c-0.1-0.1-0.3-0.1-0.4,0
			l-5.5,8.5c-0.1,0.1,0,0.3,0.2,0.3h1.6c0.2,0,0.3,0.2,0.2,0.3l-3.2,6.1c-0.1,0.1,0,0.3,0.2,0.3h4.4v2.9h4.4v-2.9h4.4
			C632.1,112.1,632.2,112,632.1,111.8"/>
		<path class="st0" d="M632.1,71.8l-3.2-6.1c-0.1-0.1,0-0.3,0.2-0.3h1.6c0.2,0,0.3-0.2,0.2-0.3l-5.5-8.5c-0.1-0.1-0.3-0.1-0.4,0
			l-5.5,8.5c-0.1,0.1,0,0.3,0.2,0.3h1.6c0.2,0,0.3,0.2,0.2,0.3l-3.2,6.1c-0.1,0.1,0,0.3,0.2,0.3h4.4V75h4.4v-2.9h4.4
			C632.1,72.1,632.2,71.9,632.1,71.8"/>
	</g>
	<g class="st1">
		<path class="st0" d="M690.9,31.8l-3.2-6.1c-0.1-0.1,0-0.3,0.2-0.3h1.6c0.2,0,0.3-0.2,0.2-0.3l-5.5-8.5c-0.1-0.1-0.3-0.1-0.4,0
			l-5.5,8.5c-0.1,0.1,0,0.3,0.2,0.3h1.6c0.2,0,0.3,0.2,0.2,0.3l-3.2,6.1c-0.1,0.1,0,0.3,0.2,0.3h4.4V35h4.4v-2.9h4.4
			C690.8,32.1,690.9,31.9,690.9,31.8"/>
		<path class="st0" d="M690.9,111.8l-3.2-6.1c-0.1-0.1,0-0.3,0.2-0.3h1.6c0.2,0,0.3-0.2,0.2-0.3l-5.5-8.5c-0.1-0.1-0.3-0.1-0.4,0
			l-5.5,8.5c-0.1,0.1,0,0.3,0.2,0.3h1.6c0.2,0,0.3,0.2,0.2,0.3l-3.2,6.1c-0.1,0.1,0,0.3,0.2,0.3h4.4v2.9h4.4v-2.9h4.4
			C690.8,112.1,690.9,112,690.9,111.8"/>
		<path class="st0" d="M690.9,71.8l-3.2-6.1c-0.1-0.1,0-0.3,0.2-0.3h1.6c0.2,0,0.3-0.2,0.2-0.3l-5.5-8.5c-0.1-0.1-0.3-0.1-0.4,0
			l-5.5,8.5c-0.1,0.1,0,0.3,0.2,0.3h1.6c0.2,0,0.3,0.2,0.2,0.3l-3.2,6.1c-0.1,0.1,0,0.3,0.2,0.3h4.4V75h4.4v-2.9h4.4
			C690.8,72.1,690.9,71.9,690.9,71.8"/>
	</g>
</g>
</svg>
