<?xml version="1.0" encoding="utf-8"?>
<!-- Generator: Adobe Illustrator 27.5.0, SVG Export Plug-In . SVG Version: 6.00 Build 0)  -->
<svg version="1.1" id="Layer_1" xmlns="http://www.w3.org/2000/svg" xmlns:xlink="http://www.w3.org/1999/xlink" x="0px" y="0px"
	 viewBox="0 0 1000 202.3" style="enable-background:new 0 0 1000 202.3;" xml:space="preserve">
<path d="M667,124.7c0,4.7-0.1,12,0.1,16.6c0,0-0.7,1.3-2.3,2.9c-14,13.6-30.9,18.7-50,16.7c-21.9-2.3-38.3-13.3-48-33
	C552.1,98.3,563,62.4,595.1,47c16.9-8.1,34.4-8.4,51.9-1.4c7.5,3,13.7,8.2,19.4,13.8c0.3,0.3,0.6,0.7,0.6,1.1c0,5.5,0,11.1,0,17.1
	c-1.2-1.8-2.1-3.1-3.1-4.4c-5.1-7.2-11-13.5-18.8-17.9c-5.7-3.2-12-4.7-18.5-5c-18.7-1.1-33.7,6-45.2,20.5
	c-15.6,19.6-13.4,48,2.5,65.1c10.7,11.4,24,16.6,39.6,16.1c17.6-0.6,30.6-9.1,40.4-23.2c1-1.4,1.9-2.8,2.8-4.2
	C666.9,124.7,666.9,124.7,667,124.7z"/>
<path d="M813,124.7c0,4.7-0.1,12,0.1,16.6c0,0-0.7,1.3-2.3,2.9c-14,13.6-30.9,18.7-50,16.7c-21.9-2.3-38.3-13.3-48-33
	C698.1,98.3,709,62.4,741.1,47c16.9-8.1,34.4-8.4,51.9-1.4c7.5,3,13.7,8.2,19.4,13.8c0.3,0.3,0.6,0.7,0.6,1.1c0,5.5,0,11.1,0,17.1
	c-1.2-1.8-2.1-3.1-3.1-4.4c-5.1-7.2-11-13.5-18.8-17.9c-5.7-3.2-12-4.7-18.5-5c-18.7-1.1-33.7,6-45.2,20.5
	c-15.6,19.6-13.4,48,2.5,65.1c10.7,11.4,24,16.6,39.6,16.1c17.6-0.6,30.6-9.1,40.4-23.2c1-1.4,1.9-2.8,2.8-4.2
	C812.9,124.7,812.9,124.7,813,124.7z"/>
<path d="M166.7,158c-4.1,0-8.3,0-12.1,0c0,0-0.4-0.6-0.6-1c-7.9-16.7-15.8-33.4-23.7-50.1c-3.5-7.4-7-14.8-10.6-22.2
	c-3.9-8.2-7.8-16.5-11.8-24.7c-0.2-0.5-0.5-1-0.9-1.7c-1.9,4.2-3.8,8.1-5.6,12.1c-13.5,28.8-27,57.6-40.4,86.4
	c-0.4,0.9-0.7,1.4-0.7,1.4c-3.4-0.1-8.3,0-12.1,0c19.7-42,39.4-83.7,59.1-125.7L166.7,158z"/>
<path d="M966.4,158c-4.1,0-8.3,0-12.1,0c0,0-0.4-0.6-0.6-1c-7.9-16.7-15.8-33.4-23.7-50.1c-3.5-7.4-7-14.8-10.6-22.2
	c-3.9-8.2-7.8-16.5-11.8-24.7c-0.2-0.5-0.5-1-0.9-1.7c-1.9,4.2-3.8,8.1-5.6,12.1c-13.5,28.8-27,57.6-40.4,86.4
	c-0.4,0.9-0.7,1.4-0.7,1.4c-3.4-0.1-8.3,0-12.1,0c19.7-42,39.4-83.7,59.1-125.7L966.4,158z"/>
<path d="M385,52.9h-56.5c0-2.9,0-5.7,0-8.4c0-0.3,0.6-0.7,0.9-0.8c0.3-0.1,0.7,0,1,0c23.6,0,47.2,0,70.9,0c0.5,0,1.1,0,2,0
	C381.8,79,360.4,114,338.9,149.4c0.9,0,1.5,0,2.1,0c19.5,0,39,0,58.5,0c2.2,0,2.2,0,2.2,0s0,6.8,0,9.2h-80.8
	C342.3,123.4,363.6,88.3,385,52.9z"/>
<path d="M219.1,149.4c1.1,0,1.8,0,2.5,0c19.5,0,38.9,0,58.4,0c1.6,0,1.9,0,1.9,0s0,6.7,0,9.2h-80.8c21.4-35.2,42.6-70.3,64-105.5
	h-56.4v-9.3h74.6C262,78.9,240.6,114,219.1,149.4z"/>
<path d="M442.7,105.5c0-2.8,0-5.5,0-8.2c0-0.3,0.5-0.7,0.9-0.9c0.4-0.2,0.9,0,1.3,0c24.3,0,48.6,0,72.9,0c0.8,0,1.5,0,2.4,0v9.1
	H442.7z"/>
<rect x="442.8" y="149.8" width="77.4" height="9"/>
<rect x="442.8" y="43.3" width="77.4" height="8.9"/>
</svg>
