<?xml version="1.0"?>
<svg width="918" height="129" xmlns="http://www.w3.org/2000/svg" xmlns:svg="http://www.w3.org/2000/svg" enable-background="new 0 0 1000 202.3" version="1.1" xml:space="preserve">

 <g class="layer">
  <title>Layer 1</title>
  <path d="m618.8,92.2c0,4.7 -0.1,12 0.1,16.6c0,0 -0.7,1.3 -2.3,2.9c-14,13.6 -30.9,18.7 -50,16.7c-21.9,-2.3 -38.3,-13.3 -48,-33c-14.7,-29.6 -3.8,-65.5 28.3,-80.9c16.9,-8.1 34.4,-8.4 51.9,-1.4c7.5,3 13.7,8.2 19.4,13.8c0.3,0.3 0.6,0.7 0.6,1.1c0,5.5 0,11.1 0,17.1c-1.2,-1.8 -2.1,-3.1 -3.1,-4.4c-5.1,-7.2 -11,-13.5 -18.8,-17.9c-5.7,-3.2 -12,-4.7 -18.5,-5c-18.7,-1.1 -33.7,6 -45.2,20.5c-15.6,19.6 -13.4,48 2.5,65.1c10.7,11.4 24,16.6 39.6,16.1c17.6,-0.6 30.6,-9.1 40.4,-23.2c1,-1.4 1.9,-2.8 2.8,-4.2c0.2,0.1 0.2,0.1 0.3,0.1z" id="svg_1"/>
  <path d="m764.8,92.2c0,4.7 -0.1,12 0.1,16.6c0,0 -0.7,1.3 -2.3,2.9c-14,13.6 -30.9,18.7 -50,16.7c-21.9,-2.3 -38.3,-13.3 -48,-33c-14.7,-29.6 -3.8,-65.5 28.3,-80.9c16.9,-8.1 34.4,-8.4 51.9,-1.4c7.5,3 13.7,8.2 19.4,13.8c0.3,0.3 0.6,0.7 0.6,1.1c0,5.5 0,11.1 0,17.1c-1.2,-1.8 -2.1,-3.1 -3.1,-4.4c-5.1,-7.2 -11,-13.5 -18.8,-17.9c-5.7,-3.2 -12,-4.7 -18.5,-5c-18.7,-1.1 -33.7,6 -45.2,20.5c-15.6,19.6 -13.4,48 2.5,65.1c10.7,11.4 24,16.6 39.6,16.1c17.6,-0.6 30.6,-9.1 40.4,-23.2c1,-1.4 1.9,-2.8 2.8,-4.2c0.2,0.1 0.2,0.1 0.3,0.1z" id="svg_2"/>
  <path d="m118.5,125.5c-4.1,0 -8.3,0 -12.1,0c0,0 -0.4,-0.6 -0.6,-1c-7.9,-16.7 -15.8,-33.4 -23.7,-50.1c-3.5,-7.4 -7,-14.8 -10.6,-22.2c-3.9,-8.2 -7.8,-16.5 -11.8,-24.7c-0.2,-0.5 -0.5,-1 -0.9,-1.7c-1.9,4.2 -3.8,8.1 -5.6,12.1c-13.5,28.8 -27,57.6 -40.4,86.4c-0.4,0.9 -0.7,1.4 -0.7,1.4c-3.4,-0.1 -8.3,0 -12.1,0c19.7,-42 39.4,-83.7 59.1,-125.7l59.4,125.5z" id="svg_3"/>
  <path d="m918.2,125.5c-4.1,0 -8.3,0 -12.1,0c0,0 -0.4,-0.6 -0.6,-1c-7.9,-16.7 -15.8,-33.4 -23.7,-50.1c-3.5,-7.4 -7,-14.8 -10.6,-22.2c-3.9,-8.2 -7.8,-16.5 -11.8,-24.7c-0.2,-0.5 -0.5,-1 -0.9,-1.7c-1.9,4.2 -3.8,8.1 -5.6,12.1c-13.5,28.8 -27,57.6 -40.4,86.4c-0.4,0.9 -0.7,1.4 -0.7,1.4c-3.4,-0.1 -8.3,0 -12.1,0c19.7,-42 39.4,-83.7 59.1,-125.7l59.4,125.5z" id="svg_4"/>
  <path d="m336.8,20.4l-56.5,0c0,-2.9 0,-5.7 0,-8.4c0,-0.3 0.6,-0.7 0.9,-0.8c0.3,-0.1 0.7,0 1,0c23.6,0 47.2,0 70.9,0c0.5,0 1.1,0 2,0c-21.5,35.3 -42.9,70.3 -64.4,105.7c0.9,0 1.5,0 2.1,0c19.5,0 39,0 58.5,0c2.2,0 2.2,0 2.2,0s0,6.8 0,9.2l-80.8,0c21.4,-35.2 42.7,-70.3 64.1,-105.7z" id="svg_5"/>
  <path d="m170.9,116.9c1.1,0 1.8,0 2.5,0c19.5,0 38.9,0 58.4,0c1.6,0 1.9,0 1.9,0s0,6.7 0,9.2l-80.8,0c21.4,-35.2 42.6,-70.3 64,-105.5l-56.4,0l0,-9.3l74.6,0c-21.3,35.1 -42.7,70.2 -64.2,105.6z" id="svg_6"/>
  <path d="m394.5,73c0,-2.8 0,-5.5 0,-8.2c0,-0.3 0.5,-0.7 0.9,-0.9c0.4,-0.2 0.9,0 1.3,0c24.3,0 48.6,0 72.9,0c0.8,0 1.5,0 2.4,0l0,9.1l-77.5,0z" id="svg_7"/>
  <rect height="9" id="svg_8" width="77.4" x="394.6" y="117.3"/>
  <rect height="8.9" id="svg_9" width="77.4" x="394.6" y="10.8"/>
 </g>
</svg>