<?xml version="1.0" encoding="utf-8"?>
<!-- Generator: Adobe Illustrator 27.5.0, SVG Export Plug-In . SVG Version: 6.00 Build 0)  -->
<svg version="1.1" id="Layer_1" xmlns="http://www.w3.org/2000/svg" xmlns:xlink="http://www.w3.org/1999/xlink" x="0px" y="0px"
	 viewBox="0 0 376 129" style="enable-background:new 0 0 376 129;" xml:space="preserve">
<style type="text/css">
	.st0{fill:#FFFFFF;}
</style>
<g>
	<g>
		<path class="st0" d="M24.9,17.5h7.2c1.7,0,3,0.4,3.9,1.2c0.9,0.8,1.3,1.9,1.3,3.4c0,0.9-0.2,1.7-0.5,2.2c-0.3,0.6-0.8,1.1-1.5,1.5
			c0.7,0.1,1.3,0.3,1.8,0.6c0.5,0.3,0.9,0.6,1.2,1c0.3,0.4,0.5,0.8,0.6,1.3c0.1,0.5,0.2,1,0.2,1.5c0,0.8-0.2,1.6-0.5,2.2
			c-0.3,0.7-0.7,1.2-1.3,1.6c-0.5,0.4-1.2,0.8-2,1c-0.8,0.2-1.7,0.3-2.6,0.3h-7.7V17.5z M29.7,24.5h0.9c1.5,0,2.3-0.6,2.3-1.7
			c0-1.2-0.8-1.7-2.3-1.7h-0.9V24.5z M29.7,31.8h1.1c1.2,0,2.1-0.2,2.6-0.5c0.5-0.3,0.8-0.8,0.8-1.5c0-0.7-0.3-1.1-0.8-1.5
			C32.9,28.2,32,28,30.8,28h-1.1V31.8z"/>
		<polygon class="st0" points="33.7,61.1 33.7,75.1 28.9,75.1 28.9,61.1 24.9,61.1 24.9,57.1 37.6,57.1 37.6,61.1 		"/>
		<path class="st0" d="M29.7,114.7h-4.8V96.8h7.6c2.1,0,3.7,0.5,4.8,1.6c1.1,1,1.7,2.5,1.7,4.4c0,1.9-0.6,3.4-1.7,4.4
			c-1.1,1-2.7,1.6-4.8,1.6h-2.8V114.7z M29.7,105h1.6c1.8,0,2.6-0.7,2.6-2.2c0-1.5-0.9-2.2-2.6-2.2h-1.6V105z"/>
	</g>
	<g>
		<polygon class="st0" points="97.3,21.4 91.6,21.4 91.6,24.4 97,24.4 97,28.4 91.6,28.4 91.6,31.5 97.3,31.5 97.3,35.4 86.8,35.4 
			86.8,17.5 97.3,17.5 		"/>
		<polygon class="st0" points="88.6,64.1 95.6,64.1 95.6,57.1 100.4,57.1 100.4,75.1 95.6,75.1 95.6,67.7 88.6,67.7 88.6,75.1 
			83.8,75.1 83.8,57.1 88.6,57.1 		"/>
		<rect x="89.7" y="96.8" class="st0" width="4.8" height="17.9"/>
	</g>
	<g>
		<polygon class="st0" points="152,26.8 145.2,17.5 151,17.5 154.4,22.4 157.8,17.5 163.5,17.5 156.8,26.8 156.8,35.4 152,35.4 		
			"/>
		<polygon class="st0" points="159.6,61.1 153.9,61.1 153.9,64.1 159.3,64.1 159.3,68 153.9,68 153.9,71.1 159.6,71.1 159.6,75.1 
			149.1,75.1 149.1,57.1 159.6,57.1 		"/>
		<polygon class="st0" points="145.2,114.7 145.2,96.8 150,96.8 158.8,107.7 158.8,96.8 163.6,96.8 163.6,114.7 158.8,114.7 
			150,103.7 150,114.7 		"/>
	</g>
	<g>
		<path class="st0" d="M336.9,17.5h7.1c1.3,0,2.4,0.2,3.5,0.7c1.1,0.5,2.1,1.1,2.9,2c0.8,0.8,1.5,1.8,1.9,2.9
			c0.5,1.1,0.7,2.2,0.7,3.4c0,1.2-0.2,2.3-0.7,3.4c-0.5,1.1-1.1,2-1.9,2.9c-0.8,0.8-1.8,1.5-2.9,2c-1.1,0.5-2.3,0.7-3.6,0.7h-7.1
			V17.5z M341.7,31.5h1.1c0.8,0,1.6-0.1,2.2-0.4c0.7-0.3,1.2-0.6,1.7-1c0.4-0.4,0.8-1,1-1.6c0.2-0.6,0.4-1.3,0.4-2
			c0-0.7-0.1-1.4-0.4-2c-0.2-0.6-0.6-1.1-1-1.6c-0.4-0.4-1-0.8-1.7-1c-0.7-0.3-1.4-0.4-2.2-0.4h-1.1V31.5z"/>
		<path class="st0" d="M351.8,112l-3.2-6c-0.1-0.1,0-0.3,0.2-0.3h1.6c0.2,0,0.3-0.2,0.2-0.3l-5.4-8.5c-0.1-0.1-0.3-0.1-0.4,0
			l-5.4,8.5c-0.1,0.1,0,0.3,0.2,0.3h1.6c0.2,0,0.3,0.2,0.2,0.3l-3.2,6c-0.1,0.1,0,0.3,0.2,0.3h4.4v2.9h4.4v-2.9h4.4
			C351.8,112.3,351.9,112.2,351.8,112"/>
		<path class="st0" d="M351.8,72.1l-3.2-6c-0.1-0.1,0-0.3,0.2-0.3h1.6c0.2,0,0.3-0.2,0.2-0.3l-5.4-8.5c-0.1-0.1-0.3-0.1-0.4,0
			l-5.4,8.5c-0.1,0.1,0,0.3,0.2,0.3h1.6c0.2,0,0.3,0.2,0.2,0.3l-3.2,6c-0.1,0.1,0,0.3,0.2,0.3h4.4v2.9h4.4v-2.9h4.4
			C351.8,72.4,351.9,72.3,351.8,72.1"/>
	</g>
	<g>
		<polygon class="st0" points="273.6,35.4 273.6,17.5 278.4,17.5 287.3,28.5 287.3,17.5 292.1,17.5 292.1,35.4 287.3,35.4 
			278.4,24.5 278.4,35.4 		"/>
		<path class="st0" d="M287,101.4c-0.5-0.4-1-0.7-1.6-0.9c-0.5-0.2-1-0.3-1.5-0.3c-0.6,0-1.1,0.1-1.5,0.4c-0.4,0.3-0.6,0.7-0.6,1.1
			c0,0.3,0.1,0.6,0.3,0.8c0.2,0.2,0.5,0.4,0.8,0.5c0.3,0.2,0.7,0.3,1.1,0.4c0.4,0.1,0.8,0.2,1.2,0.4c1.6,0.5,2.7,1.2,3.4,2
			c0.7,0.8,1.1,2,1.1,3.3c0,0.9-0.2,1.8-0.5,2.5c-0.3,0.7-0.8,1.4-1.4,1.9c-0.6,0.5-1.4,0.9-2.3,1.2c-0.9,0.3-1.9,0.4-3,0.4
			c-2.3,0-4.5-0.7-6.5-2l2.1-3.8c0.7,0.6,1.4,1.1,2.1,1.4c0.7,0.3,1.4,0.5,2.1,0.5c0.8,0,1.4-0.2,1.8-0.5c0.4-0.3,0.6-0.7,0.6-1.2
			c0-0.3,0-0.5-0.1-0.7c-0.1-0.2-0.3-0.4-0.5-0.5c-0.2-0.2-0.5-0.3-0.9-0.5c-0.4-0.1-0.8-0.3-1.3-0.5c-0.6-0.2-1.2-0.4-1.8-0.6
			c-0.6-0.2-1.1-0.5-1.6-0.9c-0.5-0.4-0.8-0.9-1.1-1.4c-0.3-0.6-0.4-1.3-0.4-2.2s0.2-1.7,0.5-2.4c0.3-0.7,0.7-1.3,1.3-1.9
			c0.5-0.5,1.2-0.9,2-1.2c0.8-0.3,1.7-0.4,2.7-0.4c0.9,0,1.9,0.1,2.9,0.4c1,0.2,2,0.6,2.9,1.1L287,101.4z"/>
		<path class="st0" d="M289.7,72.1l-3.2-6c-0.1-0.1,0-0.3,0.2-0.3h1.6c0.2,0,0.3-0.2,0.2-0.3l-5.4-8.5c-0.1-0.1-0.3-0.1-0.4,0
			l-5.4,8.5c-0.1,0.1,0,0.3,0.2,0.3h1.6c0.2,0,0.3,0.2,0.2,0.3l-3.2,6c-0.1,0.1,0,0.3,0.2,0.3h4.4v2.9h4.4v-2.9h4.4
			C289.7,72.4,289.8,72.3,289.7,72.1"/>
	</g>
	<g>
		<path class="st0" d="M208.4,26.5c0-1.3,0.3-2.6,0.8-3.7c0.5-1.1,1.2-2.2,2.1-3c0.9-0.9,2-1.5,3.2-2c1.2-0.5,2.6-0.7,4.1-0.7
			c1.5,0,2.9,0.2,4.1,0.7c1.3,0.5,2.3,1.2,3.2,2c0.9,0.9,1.6,1.9,2.1,3c0.5,1.1,0.8,2.4,0.8,3.7c0,1.3-0.3,2.6-0.8,3.7
			c-0.5,1.1-1.2,2.2-2.1,3c-0.9,0.9-2,1.5-3.2,2c-1.3,0.5-2.6,0.7-4.1,0.7c-1.5,0-2.9-0.2-4.1-0.7c-1.2-0.5-2.3-1.2-3.2-2
			c-0.9-0.9-1.6-1.9-2.1-3C208.7,29,208.4,27.8,208.4,26.5 M213.4,26.5c0,0.7,0.1,1.4,0.4,2c0.3,0.6,0.7,1.1,1.1,1.6
			c0.5,0.4,1,0.8,1.7,1c0.6,0.2,1.3,0.4,2,0.4c0.7,0,1.4-0.1,2-0.4c0.6-0.2,1.2-0.6,1.7-1c0.5-0.4,0.9-1,1.1-1.6
			c0.3-0.6,0.4-1.3,0.4-2s-0.1-1.4-0.4-2c-0.3-0.6-0.7-1.1-1.1-1.6c-0.5-0.4-1-0.8-1.7-1c-0.6-0.2-1.3-0.4-2-0.4
			c-0.7,0-1.4,0.1-2,0.4c-0.6,0.2-1.2,0.6-1.7,1c-0.5,0.4-0.8,1-1.1,1.6C213.6,25.1,213.4,25.8,213.4,26.5"/>
		<polygon class="st0" points="223.9,100.7 218.2,100.7 218.2,103.7 223.6,103.7 223.6,107.7 218.2,107.7 218.2,110.8 223.9,110.8 
			223.9,114.7 213.4,114.7 213.4,96.8 223.9,96.8 		"/>
		<path class="st0" d="M225.5,72.1l-3.2-6c-0.1-0.1,0-0.3,0.2-0.3h1.6c0.2,0,0.3-0.2,0.2-0.3l-5.4-8.5c-0.1-0.1-0.3-0.1-0.4,0
			l-5.4,8.5c-0.1,0.1,0,0.3,0.2,0.3h1.6c0.2,0,0.3,0.2,0.2,0.3l-3.2,6c-0.1,0.1,0,0.3,0.2,0.3h4.4v2.9h4.4v-2.9h4.4
			C225.4,72.4,225.5,72.3,225.5,72.1"/>
	</g>
</g>
</svg>
