<?xml version="1.0"?>
<svg width="952" height="159" xmlns="http://www.w3.org/2000/svg" xmlns:svg="http://www.w3.org/2000/svg" enable-background="new 0 0 1000 156.9" version="1.1" xml:space="preserve">

 <g class="layer">
  <title>Layer 1</title>
  <path d="m905.25,1.02c-10.7,-0.7 -32.1,-0.4 -32.1,-0.4l-1.8,0l-16.3,38.3c5.2,0 10.2,0 15.3,0c-4.9,10.8 -10.1,20.9 -14.9,31.6c5.2,0 9.8,0 15.2,0c-5.2,11.3 -10.2,22.1 -15.3,33.2l46,0.1c0,0 50.7,0.3 50.7,-50.4s-46.8,-52.4 -46.8,-52.4z" id="svg_1"/>
  <path d="m430.95,60.32c2,-1.2 3.6,-2 5.2,-3c1.6,-1 3.1,-2 4.6,-3.2c14.8,-11.8 13.5,-30.2 7.1,-39.9c-4.4,-6.7 -10.9,-10.4 -18.5,-12.3c-9.5,-2.4 -19.2,-2 -28.9,-1.2c-2.8,0.2 -5.6,0.6 -8.6,1c0,33.8 0,67.9 0,101.3c4.2,1.3 10.6,1.5 14.2,0c0,-7.3 0,-15.7 0,-23.2c0,-7.5 0,-14.9 0,-22.4c0,-7.5 0,-14.9 0,-22.4c0,-7.4 -0.1,-14.8 0.1,-22.1c5.8,-1.3 14.2,-0.9 17.8,0.3c4.9,1.7 9.1,4.3 11.1,9.2c3.2,7.9 3,17.4 -5.2,24.4c-3.4,2.9 -7.2,4.9 -11.3,6.3c-2.2,0.8 -4.7,1.6 -7,2.3c0.4,0.7 0.7,1.1 0.9,1.4c10.1,14.6 21.6,31.2 31.6,45.9c0,0 3.2,0.6 8.1,0.6s8,-0.6 8,-0.6c-9.5,-14 -19.6,-28.5 -29.2,-42.4z" id="svg_2"/>
  <path d="m187.45,2.12l-0.2,40.9c-6.8,0.7 -39.8,0.4 -42.8,-0.4c0,-13.5 0,-27.1 0,-40.9c-4.9,-0.9 -9.4,-1 -13.9,0c0,33.8 0,67.2 0,100.7c4.3,1.2 10.3,1.1 14.1,-0.2c0,-15.2 0,-30.6 0,-46c14.4,0 28.4,0 42.8,0c0,15.6 0,30.9 0,46.6c4.9,0.7 9.4,0.9 14.1,-0.1c0,-33.9 0,-67.3 0,-100.6c-4.3,-1.4 -9.9,-1.3 -14.1,0z" id="svg_3"/>
  <path d="m304.75,1.42c0,0 -3.8,-0.2 -7.8,-0.2c-4.2,0 -8.6,0.2 -8.6,0.2c-10.2,31.3 -21.6,66.5 -31.7,97.8c-0.3,1 -0.6,2.1 -0.9,3.1c4.2,1.4 10.9,1.3 14.5,-0.2c2.2,-7.5 4.5,-15.1 6.8,-22.6c12.9,0 25.5,0 38.2,0l7.3,23.3c0,0 0.3,0.2 1.9,0.4c4.4,0.5 8.1,0.4 13,-0.6c-10.9,-33.8 -21.7,-67.2 -32.7,-101.2zm-23.8,65.2c5,-16.9 9.9,-33.4 14.8,-50c0.2,0 0.5,0 0.7,0c5,16.6 9.9,33.2 14.9,50c-10.3,0 -20.2,0 -30.4,0z" id="svg_4"/>
  <path d="m638.65,42.92c11,0 21.7,0 32.3,0c1.2,4.8 1.2,7.1 0.1,12.4c-10.6,0 -21.4,0 -32.3,0c0,11.7 0,22.9 0,34.5c14,0 27.9,0 42,0c0,4.3 0,8.2 0,12.3c-18.8,0 -37.4,0 -56.2,0c0,-33.5 0,-67 0,-100.7c18.3,0 36.5,0 54.9,0c0.8,4 0.8,7.9 0,12.3c-13.5,0 -27,0 -40.7,0c-0.1,9.9 -0.1,19.3 -0.1,29.2z" id="svg_5"/>
  <path d="m790.95,4.32c-1,3.7 -1.9,7.2 -3,11.2c-1.8,-0.5 -3.2,-0.8 -4.6,-1.2c-6.5,-2 -13.1,-2.6 -19.9,-2c-2,0.2 -3.9,0.7 -5.8,1.3c-9.9,3.2 -11.1,16.7 -3.9,22.1c2.6,2 5.6,3.6 8.7,5c4.6,2.1 9.5,3.8 14.1,5.9c3,1.4 6,3 8.7,5c6.3,4.4 9.6,10.7 9.9,18.3c0.2,3.3 0.2,6.8 -0.4,10c-1.8,10.3 -8.1,17.1 -17.5,21.1c-5.2,2.2 -10.7,3 -16.3,3.4c-10.1,0.6 -20.4,-0.9 -29.2,-4.4c0.1,-4.3 1.7,-8.3 3.3,-12.4c2.4,0.7 4.5,1.4 6.6,2c8,2.3 16.2,2.8 24.3,1.1c10,-2.2 14.8,-9.3 13.6,-19.4c-0.5,-3.9 -2.3,-7.1 -5.5,-9.3c-2.1,-1.5 -4.4,-2.7 -6.8,-3.8c-4.3,-1.9 -8.7,-3.7 -13,-5.5c-2.4,-1 -4.8,-2.1 -7.1,-3.3c-9.5,-5 -13.5,-13.3 -12.8,-23.7c0.8,-12.4 7.4,-20.4 19.4,-23.9c10.4,-3.1 27.1,-2 37.2,2.5z" id="svg_6"/>
  <path d="m68.65,88.22c2.1,3.5 3.3,7.2 3.9,11.3c-4.4,2.1 -8.9,3.3 -13.6,4c-8.2,1.2 -16.4,1.4 -24.5,-0.5c-14.8,-3.5 -25,-12.4 -30.2,-26.7c-5.8,-16.1 -5.7,-32.5 0.5,-48.5c6.6,-17.2 19.7,-26.3 38.1,-27.6c10.3,-0.8 19.7,0.6 27.7,3.6c0.5,4.1 -0.3,8.3 -2.9,11.5c-1.5,-0.3 -2.7,-0.6 -4,-0.9c-7.3,-2 -14.7,-2.6 -22.2,-1.3c-9.5,1.5 -16.3,6.9 -20.8,15.3c-2.3,4.5 -3.6,9.2 -4.2,14.2c-1,8.1 -1.1,16.1 0.8,24.1c4,16.5 15.3,25.3 32.3,25.1c5.7,-0.1 11.4,-0.9 16.8,-2.9c0.7,-0.3 1.4,-0.4 2.3,-0.7z" id="svg_7"/>
  <path d="m528.55,89.92c0,-29.6 0,-58.7 0,-88c-4.8,-1 -9.3,-1 -13.9,-0.1c0,33.7 0,100.6 0,100.6l53.4,-0.3c0,0 0,-7.8 0,-12l-39.5,-0.2z" id="svg_8"/>
 </g>
</svg>
