<?xml version="1.0"?>
<svg width="524" height="89" xmlns="http://www.w3.org/2000/svg" xmlns:svg="http://www.w3.org/2000/svg">
 <defs>
  <style>.cls-1{fill:none;}.cls-2{clip-path:url(#a);}.cls-3</style>
  <clipPath id="a">
   <rect class="cls-1" height="612" id="svg_1" width="612"/>
  </clipPath>
 </defs>
 <g class="layer">
  <title>Layer 1</title>
  <path class="cls-3" d="m0,0l47.37,0l0,14.01l-47.37,0l0,-14.01zm0,37.57l47.37,0l0,14.01l-47.37,0l0,-14.01zm47.37,51.58l-47.37,0l0,-14.01l47.37,0l0,14.01z" id="svg_2"/>
  <polygon class="cls-3" id="svg_3" points="162.9900016784668,36.420013427734375 149.74999618530273,50.42999267578125 139.43000411987305,61.510009765625 129.24999618530273,50.29998779296875 116.13000106811523,36.040008544921875 116.13000106811523,89.13998413085938 102.11999130249023,89.13998413085938 102.11999130249023,0 139.55999374389648,40.8800048828125 176.99999618530273,1.1399993896484375 176.99999618530273,89.13998413085938 162.9900016784668,89.13998413085938 "/>
  <polygon class="cls-3" id="svg_4" points="524.3800010681152,75.1300048828125 524.3800010681152,89.13998413085938 458.1599998474121,89.13998413085938 500.429988861084,14.009994506835938 458.1599998474121,14.009994506835938 458.1599998474121,0 524.3800010681152,0 482.09997177124023,75.1300048828125 "/>
  <g class="cls-2" id="svg_5">
   <path class="cls-3" d="m356.42,70.34l0,18.72l-13.34,0l0,-87.9c15.13,0.23 30.36,-2.01 44.9,3.54c19.56,7.46 29.89,29.98 17.16,48.6c-2.53,3.7 -6.16,6.73 -9.6,9.69c-1.89,1.62 -2.25,2.58 -0.67,4.63c4.09,5.33 6.5,9.7 10.32,15.23c1.03,1.49 2.98,4.5 3.69,6.21l-16,0c-2.75,-4.1 -8.96,-14.39 -11.4,-18.66m-25.09,-56.2c0,14.17 -0.07,27.6 0.15,41.03c0.02,0.94 2.24,2.63 3.43,2.63c5.86,0 11.76,-0.14 17.57,-0.85c8.84,-1.08 17.57,-9.41 18.88,-17.44c1.48,-9.04 -3.59,-18 -12.52,-22.59c-8.66,-4.44 -17.58,-2.68 -27.51,-2.77" id="svg_6"/>
   <path class="cls-3" d="m278.21,35.56c-1,-0.43 -2.08,-2.68 -1.81,-3.76c1.54,-6.34 1.07,-12.29 -1.79,-17.92c-3.08,-6.37 -8.22,-11.57 -16.23,-12.61l-26.63,0l0,87.87l35.5,0c1.83,-0.32 3.2,-0.81 4.02,-0.96c5.94,-1.12 9.34,-3.97 13.37,-8.29c12.11,-12.98 9.49,-37.46 -6.43,-44.33m-33.84,-23.05c3.35,0.18 6.64,0 9.78,0.6c6.06,1.16 10.06,6.51 9.77,12.41c-0.29,5.93 -4.96,10.93 -11.08,11.63c-2.75,0.32 -5.56,0.27 -8.47,0.39l0,-25.03zm23.71,62.77c-1.21,0.22 -2.45,0.33 -3.68,0.34c-6.33,0.03 -12.66,0.01 -18.99,0.01l-1.58,0l0,-24.75c2.81,0 5.53,0.19 8.23,-0.04c4.54,-0.38 8.44,-1.14 11.98,-4.31c0.54,-0.48 1.35,-0.79 2.04,-0.79c6.33,0.04 12.2,6.24 12.71,13.33c0.56,7.91 -4.1,14.99 -10.72,16.21" id="svg_7"/>
  </g>
 </g>
</svg>
