<?xml version="1.0" encoding="UTF-8"?>
<svg viewBox="0 0 612 612" xmlns="http://www.w3.org/2000/svg">
<defs>
<style>.cls-1{fill:none;}.cls-2{clip-path:url(#a);}.cls-3{fill:#231f20;}</style>
<clipPath id="a">
<rect class="cls-1" width="612" height="612"/>
</clipPath>
</defs>
<path class="cls-3" d="m43.81 233.47h47.37v14.01h-47.37v-14.01zm0 37.57h47.37v14.01h-47.37v-14.01zm47.37 51.58h-47.37v-14.01h47.37v14.01z"/>
<polygon class="cls-3" points="206.8 269.89 193.56 283.9 183.24 294.98 173.06 283.77 159.94 269.51 159.94 322.61 145.93 322.61 145.93 233.47 183.37 274.35 220.81 234.61 220.81 322.61 206.8 322.61"/>
<polygon class="cls-3" points="568.19 308.6 568.19 322.61 501.97 322.61 544.24 247.48 501.97 247.48 501.97 233.47 568.19 233.47 525.91 308.6"/>
<g class="cls-2">
<path class="cls-3" d="m400.23,303.81v18.72h-13.34v-87.9c15.13.23,30.36-2.01,44.9,3.54,19.56,7.46,29.89,29.98,17.16,48.6-2.53,3.7-6.16,6.73-9.6,9.69-1.89,1.62-2.25,2.58-.67,4.63,4.09,5.33,6.5,9.7,10.32,15.23,1.03,1.49,2.98,4.5,3.69,6.21h-16c-2.75-4.1-8.96-14.39-11.4-18.66m-25.09-56.2c0,14.17-.07,27.6.15,41.03.02.94,2.24,2.63,3.43,2.63,5.86,0,11.76-.14,17.57-.85,8.84-1.08,17.57-9.41,18.88-17.44,1.48-9.04-3.59-18-12.52-22.59-8.66-4.44-17.58-2.68-27.51-2.77"/>
<path class="cls-3" d="m322.02,269.03c-1-.43-2.08-2.68-1.81-3.76,1.54-6.34,1.07-12.29-1.79-17.92-3.08-6.37-8.22-11.57-16.23-12.61h-26.63v87.87h35.5c1.83-.32,3.2-.81,4.02-.96,5.94-1.12,9.34-3.97,13.37-8.29,12.11-12.98,9.49-37.46-6.43-44.33m-33.84-23.05c3.35.18,6.64,0,9.78.6,6.06,1.16,10.06,6.51,9.77,12.41-.29,5.93-4.96,10.93-11.08,11.63-2.75.32-5.56.27-8.47.39v-25.03Zm23.71,62.77c-1.21.22-2.45.33-3.68.34-6.33.03-12.66.01-18.99.01h-1.58v-24.75c2.81,0,5.53.19,8.23-.04,4.54-.38,8.44-1.14,11.98-4.31.54-.48,1.35-.79,2.04-.79,6.33.04,12.2,6.24,12.71,13.33.56,7.91-4.1,14.99-10.72,16.21"/>
</g>
</svg>
