<?xml version="1.0" encoding="UTF-8"?><svg id="Layer_1" xmlns="http://www.w3.org/2000/svg" viewBox="0 0 566.35 165.57"><defs><style>.cls-1{fill:#231f20;}</style></defs><polygon class="cls-1" points="41.81 13.59 0 13.59 0 162.65 72.33 162.65 72.33 125.64 41.81 125.64 41.81 13.59"/><path class="cls-1" d="m129.97,124.39c0,5.02-2.72,7.94-7.32,7.94s-7.53-2.93-7.53-7.94V58.12h-37.63v62.72c0,29.69,15.05,44.74,45.16,44.74s45.16-15.05,45.16-44.74v-62.72h-37.84v66.27Z"/><polygon class="cls-1" points="225.3 27.39 187.25 27.39 187.25 58.12 174.7 58.12 174.7 91.15 187.25 91.15 187.25 162.65 225.3 162.65 225.3 91.15 238.89 91.15 238.89 58.12 225.3 58.12 225.3 27.39"/><polygon class="cls-1" points="296.37 27.39 258.32 27.39 258.32 58.12 245.78 58.12 245.78 91.15 258.32 91.15 258.32 162.65 296.37 162.65 296.37 91.15 309.96 91.15 309.96 58.12 296.37 58.12 296.37 27.39"/><path class="cls-1" d="m352.39,72.75v-14.63h-35.54v104.53h38.05v-46.62c0-17.56,6.06-24.04,25.09-24.04h.84v-36.79c-12.13,1.04-21.74,6.69-28.44,17.56Z"/><path class="cls-1" d="m430.06,55.19c-28.64,0-45.78,20.07-45.78,55.61s16.72,54.77,45.99,54.77c24.88,0,42.02-14.84,44.95-39.51h-31.78c-1.67,7.95-5.23,11.71-11.08,11.71-8.16,0-11.08-6.9-11.08-21.53v-1.46h55.4c.21-2.51.21-5.23.21-7.52,0-34.91-15.47-52.06-46.83-52.06Zm-8.78,42.02c1.67-11.71,5.02-17.77,11.08-17.77,7.53,0,11.29,6.06,11.29,17.77h-22.37Z"/><rect class="cls-1" x="483.78" width="37.84" height="162.65"/><rect class="cls-1" x="528.51" width="37.84" height="162.65"/></svg>
