<?xml version="1.0" encoding="UTF-8"?><svg id="Layer_1" xmlns="http://www.w3.org/2000/svg" viewBox="0 0 502.68 139.82"><rect x="172.74" y="59.6" width="50.78" height="18.82"/><polygon points="146.75 17.4 130.37 17.4 115.92 80.12 112.58 96.72 109.28 79.45 96.4 17.4 72.51 17.4 60.27 79.81 57.15 96.72 54.03 79.45 39.72 17.4 15.68 17.4 46.41 125.76 67.44 125.76 80.52 62.39 84.35 41.44 88.17 62.39 101.26 125.76 122.94 125.76 146.75 41.11 146.75 125.76 168.21 125.76 168.21 17.4 153.42 17.4 146.75 17.4"/><path d="m451.88,17.4h-25.62l-34.58,96.87-38.33-52.3,44.47-44.57h-29.26l-41.87,44.65V17.4h-22.28v20.2c-2.08-5.79-5.63-10.56-10.65-14.28-8.16-6.05-18.02-9.08-29.58-9.08-13.85,0-24.34,3.21-31.48,9.63-2.65,2.38-4.81,4.99-6.48,7.83v-14.3h-53.49v19.19h51.19c-1.29,3.53-1.94,7.35-1.94,11.47,0,10.64,3.65,18.45,10.95,23.45,4.31,2.99,12.23,5.76,23.76,8.31l11.73,2.57c6.87,1.47,11.88,3.16,15.05,5.07,3.16,1.96,4.74,4.73,4.74,8.31,0,6.13-3.23,10.32-9.69,12.57-3.4,1.18-7.83,1.76-13.28,1.76-9.11,0-15.54-2.23-19.29-6.69-2.05-2.45-3.43-6.15-4.13-11.1h-21.61c0,5.16.87,9.82,2.58,13.97h-50.07v19.48h56.14v-10.17c1.1,1.16,2.3,2.26,3.61,3.3,8.17,6.44,19.4,9.67,33.66,9.67s24.78-3.27,32.43-9.81c2.29-1.96,4.23-4.07,5.84-6.33v13.35h22.28v-36.24l10.9-11.06,33.39,47.3h40.27l7.35-22.28h39.91l7.15,22.28h24.55l-38.34-108.36Zm-147.46,58.57c-1.17-1.47-2.52-2.81-4.05-4.02-4.16-3.28-10.4-5.91-18.74-7.87l-19.02-4.48c-7.34-1.72-12.14-3.21-14.4-4.48-3.52-1.91-5.27-4.8-5.27-8.67,0-4.21,1.78-7.5,5.35-9.85,3.57-2.35,8.34-3.53,14.32-3.53,5.37,0,9.87.91,13.49,2.72,5.43,2.74,8.34,7.38,8.74,13.89h19.57v26.3Zm120.34,8.85l14.07-42.64,13.69,42.64h-27.75Z"/></svg>