<?xml version="1.0"?>
<svg width="475" height="114" xmlns="http://www.w3.org/2000/svg" xmlns:svg="http://www.w3.org/2000/svg">

 <g class="layer">
  <title>Layer 1</title>
  <rect height="18.82" id="svg_1" width="50.78" x="157.06" y="45.36"/>
  <polygon id="svg_2" points="131.06999969482422,3.1599998474121094 114.68999481201172,3.1599998474121094 100.23999786376953,65.88000297546387 96.9000015258789,82.48000144958496 93.5999984741211,65.20999717712402 80.72000122070312,3.1599998474121094 56.83000183105469,3.1599998474121094 44.59000015258789,65.56999778747559 41.470001220703125,82.48000144958496 38.349998474121094,65.20999717712402 24.040000915527344,3.1599998474121094 0,3.1599998474121094 30.729999542236328,111.5200023651123 51.76000213623047,111.5200023651123 64.83999633789062,48.14999961853027 68.66999816894531,27.19999885559082 72.48999786376953,48.14999961853027 85.58000183105469,111.5200023651123 107.26000213623047,111.5200023651123 131.06999969482422,26.8700008392334 131.06999969482422,111.5200023651123 152.5300064086914,111.5200023651123 152.5300064086914,3.1599998474121094 137.73999786376953,3.1599998474121094 131.06999969482422,3.1599998474121094 "/>
  <path d="m436.2,3.16l-25.62,0l-34.58,96.87l-38.33,-52.3l44.47,-44.57l-29.26,0l-41.87,44.65l0,-44.65l-22.28,0l0,20.2c-2.08,-5.79 -5.63,-10.56 -10.65,-14.28c-8.16,-6.05 -18.02,-9.08 -29.58,-9.08c-13.85,0 -24.34,3.21 -31.48,9.63c-2.65,2.38 -4.81,4.99 -6.48,7.83l0,-14.3l-53.49,0l0,19.19l51.19,0c-1.29,3.53 -1.94,7.35 -1.94,11.47c0,10.64 3.65,18.45 10.95,23.45c4.31,2.99 12.23,5.76 23.76,8.31l11.73,2.57c6.87,1.47 11.88,3.16 15.05,5.07c3.16,1.96 4.74,4.73 4.74,8.31c0,6.13 -3.23,10.32 -9.69,12.57c-3.4,1.18 -7.83,1.76 -13.28,1.76c-9.11,0 -15.54,-2.23 -19.29,-6.69c-2.05,-2.45 -3.43,-6.15 -4.13,-11.1l-21.61,0c0,5.16 0.87,9.82 2.58,13.97l-50.07,0l0,19.48l56.14,0l0,-10.17c1.1,1.16 2.3,2.26 3.61,3.3c8.17,6.44 19.4,9.67 33.66,9.67s24.78,-3.27 32.43,-9.81c2.29,-1.96 4.23,-4.07 5.84,-6.33l0,13.35l22.28,0l0,-36.24l10.9,-11.06l33.39,47.3l40.27,0l7.35,-22.28l39.91,0l7.15,22.28l24.55,0l-38.34,-108.36l0.02,-0.01zm-147.46,58.57c-1.17,-1.47 -2.52,-2.81 -4.05,-4.02c-4.16,-3.28 -10.4,-5.91 -18.74,-7.87l-19.02,-4.48c-7.34,-1.72 -12.14,-3.21 -14.4,-4.48c-3.52,-1.91 -5.27,-4.8 -5.27,-8.67c0,-4.21 1.78,-7.5 5.35,-9.85c3.57,-2.35 8.34,-3.53 14.32,-3.53c5.37,0 9.87,0.91 13.49,2.72c5.43,2.74 8.34,7.38 8.74,13.89l19.57,0l0,26.3l0.01,-0.01zm120.34,8.85l14.07,-42.64l13.69,42.64l-27.75,0l-0.01,0z" id="svg_3"/>
 </g>
</svg>