<?xml version="1.0" encoding="utf-8"?>
<!-- Generator: Adobe Illustrator 27.4.0, SVG Export Plug-In . SVG Version: 6.00 Build 0)  -->
<svg version="1.1" id="Layer_1" xmlns="http://www.w3.org/2000/svg" xmlns:xlink="http://www.w3.org/1999/xlink" x="0px" y="0px"
	 viewBox="0 0 172.7 171.2" style="enable-background:new 0 0 172.7 171.2;" xml:space="preserve">
<g style="fill:#FFFFFF">
	<path d="M7.4,82.6c0.2-0.8,0.1-1.6,0.2-2.5c0.4-5.6,1.4-11,2.9-16.4c3.2-10.9,8.4-20.6,15.8-29.2c6.3-7.4,13.7-13.4,22.3-18.1
		c5.9-3.2,12.2-5.7,18.7-7.3c3.8-1,7.7-1.6,11.6-2c2.8-0.2,5.5-0.4,8.3-0.4c7,0.1,13.9,1.1,20.7,3c8.3,2.4,16,6,23.2,10.9
		c5.7,3.9,10.8,8.5,15.3,13.8c6,6.9,10.6,14.7,13.8,23.2c2,5.1,3.4,10.4,4.2,15.9c0.8,5.2,1.1,10.4,0.9,15.6c-0.2,5-0.9,10-2.1,14.9
		c-1.5,6.2-3.6,12.1-6.5,17.7c-2.9,5.7-6.5,11-10.8,15.9c-4.9,5.6-10.5,10.4-16.7,14.5c-7.5,4.9-15.6,8.4-24.4,10.5
		c-4,0.9-8,1.6-12,1.9c-1.3,0.1-2.6,0.1-3.8,0.3c-1.8,0-3.6,0-5.4,0c-0.2-0.1-0.4-0.1-0.6-0.1c-1.7,0-3.4-0.2-5.1-0.4
		c-5-0.5-10-1.5-14.9-3c-6.9-2.1-13.5-5.2-19.6-9.1c-6.2-4-11.7-8.8-16.5-14.3c-3.2-3.7-6.1-7.6-8.6-11.8
		c-3.4-5.7-6.1-11.8-7.9-18.2c-1.6-5.4-2.5-10.8-3-16.4c-0.1-0.9,0-1.7-0.2-2.6C7.4,86.8,7.4,84.7,7.4,82.6z M10.9,85.7
		c-0.1,41.5,33.4,74.9,74.3,75.5c42.2,0.6,76.4-33.3,76.7-75c0.3-42.2-33.8-76-75.5-76.1C44.4,10.2,10.8,44.3,10.9,85.7z"/>
	<path d="M85.3,76.6c-0.2-0.1-0.3-0.3-0.4-0.4c-2.2-3.4-4.4-6.9-6.6-10.3c-0.2-0.3-0.4-0.5-0.8-0.5c-2.1,0-4.2,0-6.3,0
		c-0.4,0-0.6,0.1-0.6,0.6c0,8.1,0,16.2,0,24.2c0,0.5,0.1,0.6,0.6,0.6c2.1,0,4.3,0,6.4,0c0.5,0,0.7-0.2,0.7-0.7c0-3.3,0-6.5,0-9.8
		c0-0.2,0-0.5,0.1-0.7c0.3,0.1,0.3,0.3,0.4,0.4c2.2,3.4,4.4,6.7,6.6,10.1c0.3,0.5,0.6,0.6,1.2,0.6c2,0,3.9,0,5.9,0
		c0.7,0,0.7,0,0.7-0.8c0-24.8,0-49.7,0-74.5c0-0.3,0-0.6,0-0.9c0-0.3,0.1-0.4,0.4-0.4c0.7,0,1.4,0.1,2.2,0.2c0.3,0,0.4,0.2,0.4,0.5
		c0,0.2,0,0.4,0,0.6c0,16.8,0,33.6,0,50.3c0,0.2-0.1,0.5,0.1,0.7c0.7-1,1.4-1.8,2.3-2.4c1.5-1.1,3.1-1.9,4.8-2.5
		c0.5-0.2,0.7-0.4,0.8-0.9c1.1-6.8,2.3-13.5,3.4-20.3c1.2-7.2,2.5-14.3,3.7-21.5c0.1-0.7,0.1-0.7,0.8-0.4c0.6,0.2,1.1,0.5,1.7,0.7
		c0.4,0.1,0.5,0.4,0.4,0.8c-0.5,2.9-1.1,5.8-1.6,8.7c-1.2,6.8-2.5,13.6-3.7,20.5c-0.7,3.8-1.4,7.7-2.1,11.5c-0.1,0.5,0,0.6,0.5,0.6
		c0.9,0,1.8,0,2.7,0.2c0.4,0.1,0.5-0.2,0.6-0.4c1.3-2.2,2.5-4.5,3.8-6.7c3.7-6.7,7.5-13.4,11.2-20.2c1.1-1.9,2.2-3.9,3.2-5.8
		c0.2-0.4,0.4-0.4,0.8-0.2c6.1,4.6,11.3,9.9,15.7,16.1c4.9,7,8.5,14.5,10.7,22.8c1,3.8,1.7,7.7,2.1,11.6c0.2,2.4,0.4,4.8,0.4,7.2
		c0,6.3-0.8,12.5-2.4,18.5c0,0.2,0,0.4-0.2,0.4c-0.2,0-0.2-0.3-0.3-0.4c-1.3-3.6-2.7-7.3-4-10.9c-0.2-0.5-0.4-0.6-0.9-0.6
		c-1.4,0-2.8,0-4.2,0c-0.4,0-0.6,0.1-0.8,0.5c-1.7,4.6-3.4,9.2-5.1,13.8c-0.8,2-1.5,4.1-2.2,6.1c-0.2,0.6-0.2,0.6,0.4,0.6
		c1.9,0,3.8,0,5.7,0c0.3,0,0.4-0.1,0.5-0.4c0.2-0.6,0.5-1.3,0.7-1.9c0.1-0.4,0.3-0.5,0.7-0.5c1.5,0,3,0,4.4,0c0.4,0,0.6,0.1,0.7,0.5
		c0.2,0.6,0.4,1.2,0.7,1.8c0.1,0.1,0.1,0.4,0.2,0.4c0.3,0.1,0.3,0.3,0.2,0.6c-0.8,1.9-1.7,3.7-2.7,5.5c-2.3,4.3-5,8.3-8.2,12
		c-2.9,3.4-6,6.6-9.5,9.4c-4.5,3.7-9.4,6.9-14.7,9.4c-3.9,1.9-8,3.4-12.2,4.5c-0.6,0.2-0.6,0.1-0.6-0.5c0-16.5,0-33.1,0-49.6
		c0-0.2,0-0.3,0.1-0.5c0.2,0.1,0.3,0.3,0.4,0.5c1.8,2.7,3.6,5.5,5.3,8.2c0.2,0.4,0.5,0.5,0.9,0.5c1.7,0,3.3,0,5,0
		c0.4,0,0.6-0.1,0.6-0.6c0-6.6,0-13.3,0-19.9c0-0.4-0.2-0.6-0.6-0.5c-1.7,0-3.5,0-5.2,0c-0.5,0-0.6,0.2-0.6,0.6c0,2.7,0,5.3,0,8
		c0,0.2,0,0.4,0,0.6c-0.3,0.1-0.3-0.2-0.4-0.3c-1.8-2.8-3.7-5.6-5.5-8.5c-0.2-0.3-0.5-0.5-0.9-0.5c-1.7,0-3.3,0-5,0
		c-0.4,0-0.6,0.1-0.6,0.6c0,1.3,0,2.5,0,3.8c0,19.5,0,39,0,58.5c0,0.9,0.2,1-1,1.2c-4.3,0.7-8.7,0.9-13,0.8
		c-5.1-0.2-10.1-0.8-15-2.1c-10.6-2.6-20.2-7.4-28.6-14.4c-7.4-6.1-13.3-13.4-17.8-21.8c-3.1-5.9-5.4-12.1-6.8-18.6
		c-0.8-3.8-1.3-7.6-1.5-11.4c-0.1-2.1-0.1-4.1-0.1-6.2c0.2-5.2,0.9-10.4,2.2-15.4c0-0.1,0-0.1,0.2-0.1c0.1,0.2,0.1,0.4,0.1,0.6
		c0,7.5,0,15,0,22.4c0,0.8,0,0.8,0.8,0.8c4.4,0,8.8,0,13.2,0c7.6,0,14-5.4,15.4-12.9c1.3-7.1-2.6-14.2-9.3-17
		c-1.9-0.8-3.9-1.2-5.9-1.2c-3.7,0-7.4,0-11.1,0c-0.8,0-0.8,0-0.5-0.8c3.1-7.8,7.3-14.8,12.8-21.1c7.1-8.1,15.5-14.3,25.4-18.7
		c5.2-2.3,10.6-4,16.3-4.9c3.4-0.6,6.8-1,10.2-1.1c0,0,0,0,0.1,0c1.3-0.1,1.3-0.1,1.3,1.3c0,16.7,0,33.3,0,50c0,3.6,0,7.1,0,10.7
		C85.4,76.1,85.4,76.3,85.3,76.6z M119.8,78.1c0,4,0,8.1,0,12.1c0,0.4,0.1,0.7,0.6,0.7c6.5,0,12.9,0,19.4,0c0.5,0,0.6-0.2,0.6-0.6
		c0-1.8,0-3.7,0-5.5c0-0.8,0-0.8-0.8-0.8c-3.9,0-7.7,0-11.6,0c-0.5,0-0.7-0.1-0.7-0.7c0-0.3,0-0.6,0-0.8c0-0.7,0-0.8,0.8-0.8
		c3.6,0,7.2,0,10.8,0c0.5,0,0.7-0.2,0.7-0.7c0-1.9,0-3.8,0-5.7c0-0.7,0-0.7-0.7-0.7c-3.4,0-6.8,0-10.1,0c-1.4,0-1.4,0-1.4-1.4
		c0-0.8,0-0.8,0.8-0.8c3.8,0,7.6,0,11.5,0c0.7,0,0.7,0,0.7-0.7c0-1.9,0-3.7,0-5.6c0-0.5-0.2-0.7-0.7-0.7c-6.4,0-12.8,0-19.2,0
		c-0.7,0-0.7,0-0.7,0.7C119.8,70.1,119.8,74.1,119.8,78.1z M65.1,90.8c1.1,0,2.3,0,3.4,0c0.8,0,0.8,0,0.5-0.7C66,82,63,73.9,60,65.9
		c-0.1-0.4-0.3-0.5-0.7-0.5c-1.8,0-3.6,0-5.4,0c-0.5,0-0.7,0.1-0.8,0.6c-3,8.1-6,16.2-9,24.3c-0.2,0.4-0.1,0.6,0.4,0.6
		c2.4,0,4.7,0,7.1,0c0.4,0,0.6-0.1,0.7-0.5c0.3-0.8,0.6-1.6,0.9-2.4c0.1-0.4,0.3-0.5,0.7-0.5c1.8,0,3.7,0,5.5,0
		c0.4,0,0.6,0.2,0.7,0.5c0.3,0.8,0.6,1.5,0.9,2.3c0.1,0.4,0.3,0.5,0.7,0.5C62.7,90.8,63.9,90.8,65.1,90.8z M54.3,118.3
		c1.2,0,2.3,0,3.5,0c0.6,0,0.6,0,0.4-0.6c-0.8-2.1-1.5-4.2-2.3-6.2c-2.2-6-4.5-12.1-6.7-18.1c-0.1-0.4-0.3-0.5-0.7-0.5
		c-1.8,0-3.7,0-5.5,0c-0.5,0-0.6,0.2-0.8,0.6c-1,2.8-2,5.5-3,8.3c-2,5.3-3.9,10.7-5.9,16c-0.2,0.4-0.1,0.5,0.4,0.5
		c2.4,0,4.7,0,7.1,0c0.4,0,0.6-0.2,0.7-0.5c0.3-0.8,0.6-1.5,0.9-2.3c0.1-0.3,0.3-0.5,0.7-0.5c1.9,0,3.7,0,5.6,0
		c0.4,0,0.5,0.1,0.7,0.5c0.3,0.8,0.6,1.5,0.8,2.3c0.1,0.5,0.4,0.6,0.9,0.6C52.1,118.2,53.2,118.3,54.3,118.3z M107.7,91.5
		c0.4,0,0.7,0,1.1,0c0.2,0,0.5-0.1,0.7-0.1c3.7-0.5,6.7-2.3,9-5.2c0.2-0.3,0.2-0.4-0.1-0.6c-1.8-1.5-3.6-2.9-5.5-4.4
		c-0.3-0.2-0.4-0.2-0.6,0.1c-0.3,0.5-0.7,0.9-1.2,1.2c-1.4,1.2-3.1,1.6-4.8,1.1c-3.3-0.9-5-4.4-3.8-7.6c0.9-2.5,3.3-3.9,5.9-3.5
		c1,0.1,1.9,0.6,2.7,1.2c0.2,0.1,0.4,0.2,0.6,0c1.8-1.6,3.5-3.1,5.3-4.6c0.3-0.3,0.3-0.4,0-0.6c-2.7-2.4-5.7-3.7-9.3-3.8
		c-3.9,0-7.3,1.4-9.9,4.3c-2.8,3.1-4,6.8-3.4,10.9C95.2,86.6,101,91.5,107.7,91.5z M69.6,107.5c-1,0.8-2,1.1-3.1,1
		c-2.6-0.2-4.6-2.4-4.5-5c0.1-2.1,1-3.8,3-4.6c1.9-0.8,3.7-0.3,5.1,1.1c0.3,0.3,0.5,0.3,0.8,0.1c1.4-0.9,2.8-1.9,4.2-2.8
		c0.6-0.4,0.6-0.4,0.1-0.9c-2.5-2.8-5.6-4.2-9.5-3.9c-5.5,0.4-10,5.1-10.1,10.6c-0.1,3.3,0.9,6.2,3.2,8.5c3.1,3,6.8,3.7,10.8,2.7
		c0.6-0.1,1.1-0.3,1.8-0.3c1.6,0.1,3.1,0,4.7,0c0.4,0,0.5-0.1,0.5-0.5c0-3.7,0-7.5,0-11.2c0-0.4-0.1-0.6-0.6-0.6c-2.9,0-5.8,0-8.7,0
		c-0.4,0-0.6,0.1-0.6,0.6c0,1.4,0,2.9,0,4.3c0,0.9,0,0.9,0.9,0.9C68.3,107.4,68.9,107.3,69.6,107.5z M119.5,103.3c0,3.3,0,6.7,0,10
		c0,0.4,0.1,0.5,0.5,0.5c3,0,6.1,0,9.1,0c0.4,0,0.9,0,1.3-0.1c6-0.9,9.8-6.1,9-12.1c-0.7-4.9-5-8.8-10-8.9c-3.1-0.1-6.2,0-9.2,0
		c-0.7,0-0.7,0-0.7,0.7C119.5,96.8,119.5,100.1,119.5,103.3z M78.9,103.3c0,3.3,0,6.7,0,10c0,0.4,0.1,0.6,0.6,0.6
		c5.3,0,10.6,0,15.8,0c0.5,0,0.6-0.1,0.6-0.6c0-1.5,0-3,0-4.4c0-0.7,0-0.7-0.7-0.7c-3,0-6,0-9,0c-1.1,0-1.1,0-1.1-1.1
		c0-0.8,0-0.8,0.8-0.8c2.9,0,5.8,0,8.7,0c0.5,0,0.7-0.1,0.7-0.6c0-1.5,0-3,0-4.5c0-0.5-0.2-0.7-0.7-0.7c-2.8,0-5.6,0-8.4,0
		c-1.2,0-1.2,0.2-1.2-1.2c0-0.7,0-0.7,0.7-0.7c3.1,0,6.3,0,9.4,0c0.5,0,0.7-0.1,0.7-0.7c0-1.5,0-3,0-4.4c0-0.5-0.1-0.7-0.7-0.7
		c-5.2,0-10.4,0-15.6,0c-0.5,0-0.7,0.2-0.7,0.7C78.9,96.8,78.9,100.1,78.9,103.3z"/>
	<path d="M25,75.9c0-2.4,0-4.9,0-7.3c0-0.5,0.1-0.7,0.7-0.7c1.8,0.1,3.7-0.2,5.5,0.1c3,0.5,5.1,2.2,6.2,5.1c1.1,2.9,0.6,5.6-1.4,8
		c-1.6,2-3.9,2.9-6.4,2.9c-1.3,0-2.6,0-4,0c-0.5,0-0.7-0.2-0.7-0.7C25,80.8,25,78.4,25,75.9z"/>
	<path d="M148.5,102.7c0.2,0.8,0.5,1.6,0.7,2.4c0,0.2,0,0.3-0.2,0.3c0,0-0.1,0-0.1,0c-1.3,0.2-1.4,0.1-1-1.2c0.1-0.5,0.3-1,0.5-1.5
		C148.4,102.7,148.4,102.7,148.5,102.7z"/>
	<path d="M56.4,77.3c0.3,0.3,0.4,0.7,0.5,1c0.2,0.6,0.4,1.2,0.6,1.9c0.1,0.3,0,0.4-0.3,0.4c-0.4,0-0.9,0-1.3,0
		c-0.3,0-0.4-0.1-0.3-0.4C55.8,79.2,56.1,78.3,56.4,77.3z"/>
	<path d="M45.7,104.7c0.2,0.1,0.2,0.2,0.3,0.3c0.3,0.8,0.5,1.7,0.7,2.5c0.1,0.3,0,0.5-0.4,0.5c-1.7,0.1-1.7,0.1-1.2-1.5
		C45.3,105.9,45.5,105.3,45.7,104.7z"/>
	<path d="M127.6,108c-0.4,0-0.8,0-1.2,0c-0.4,0-0.6-0.1-0.6-0.6c0-1.5,0-3,0-4.5c0-1.2,0-2.4,0-3.6c0-0.4,0.1-0.6,0.6-0.6
		c0.7,0,1.4,0,2.2,0c2.5,0,4.5,2.1,4.5,4.6c0,2.5-2,4.6-4.5,4.6C128.2,108,127.9,108,127.6,108z"/>
</g>
</svg>
